# Blender 4.4.1
# www.blender.org
mtllib haha baldi.mtl
o Cube.002
v -4.547362 -0.140529 4.547362
v -4.547362 1.859471 4.547362
v -4.547362 -0.140529 -4.547362
v -4.547362 1.859471 -4.547362
v 4.547362 -0.140529 4.547362
v 4.547362 1.859471 4.547362
v 4.547362 -0.140529 -4.547362
v 4.547362 1.859471 -4.547362
v 4.547362 -0.140529 -4.547362
v 3.536837 -0.140529 -4.547362
v 2.526313 -0.140529 -4.547362
v 1.515787 -0.140529 -4.547362
v 0.505262 -0.140529 -4.547362
v -0.505263 -0.140529 -4.547362
v -1.515787 -0.140529 -4.547362
v -2.526313 -0.140529 -4.547362
v -2.526313 1.859471 -4.547362
v -1.515787 1.859471 -4.547362
v -0.505262 1.859471 -4.547362
v 0.505263 1.859471 -4.547362
v 1.515787 1.859471 -4.547362
v 2.526313 1.859471 -4.547362
v 3.536837 1.859471 -4.547362
v 4.547362 1.859471 -4.547362
v -4.547362 1.412865 4.547362
v -4.547362 1.412865 -4.547362
v 4.547362 1.412865 -4.547362
v 4.547362 1.412865 4.547362
v -2.526313 1.412865 -4.547362
v -1.515787 1.412865 -4.547362
v -0.505262 1.412865 -4.547362
v 0.505263 1.412865 -4.547362
v 1.515787 1.412865 -4.547362
v 2.526313 1.412865 -4.547362
v 3.536837 1.412865 -4.547362
v 4.547362 1.412865 -4.547362
v -5.000000 0.000000 5.000000
v 5.000000 0.000000 5.000000
v -5.000000 0.000000 -5.000000
v 5.000000 0.000000 -5.000000
v 4.999999 1.665090 4.999999
v -4.999999 1.665091 4.999999
v 4.999999 1.665090 -4.999999
v -4.999999 1.665091 -4.999999
v 0.756362 -0.256344 0.894757
v 0.756362 2.016906 0.894757
v 0.756362 -0.256344 -5.828904
v 0.756362 2.016906 -5.828904
v 5.678102 -0.256344 0.894757
v 5.678102 2.016906 0.894757
v 5.678102 -0.256344 -5.828904
v 5.678102 2.016906 -5.828904
v -0.756362 -0.256344 0.894757
v -0.756362 2.016905 0.894757
v -0.756362 -0.256344 -5.828903
v -0.756362 2.016905 -5.828903
v -5.678102 -0.256344 0.894757
v -5.678102 2.016905 0.894757
v -5.678102 -0.256344 -5.828903
v -5.678102 2.016905 -5.828903
v 0.756362 -0.256344 -5.081830
v 0.756362 -0.256344 -4.334757
v 0.756362 -0.256344 -3.587684
v 0.756362 -0.256344 -2.840610
v 0.756362 -0.256344 -2.093537
v 0.756362 -0.256344 -1.346463
v 0.756362 -0.256344 -0.599390
v 0.756362 -0.256344 0.147683
v 0.756362 2.016906 0.147683
v 0.756362 2.016906 -0.599390
v 0.756362 2.016906 -1.346463
v 0.756362 2.016906 -2.093537
v 0.756362 2.016906 -2.840610
v 0.756362 2.016906 -3.587683
v 0.756362 2.016906 -4.334757
v 0.756362 2.016906 -5.081830
v 5.678102 -0.256344 0.147683
v 5.678102 -0.256344 -0.599390
v 5.678102 -0.256344 -1.346463
v 5.678102 -0.256344 -2.093537
v 5.678102 -0.256344 -2.840610
v 5.678102 -0.256344 -3.587683
v 5.678102 -0.256344 -4.334757
v 5.678102 -0.256344 -5.081830
v 5.678102 2.016906 -5.081830
v 5.678102 2.016906 -4.334757
v 5.678102 2.016906 -3.587684
v 5.678102 2.016906 -2.840610
v 5.678102 2.016906 -2.093537
v 5.678102 2.016906 -1.346463
v 5.678102 2.016906 -0.599390
v 5.678102 2.016906 0.147683
v 0.756362 1.306515 0.894757
v 0.756362 1.306515 -5.828904
v 5.678102 1.306515 -5.828904
v 5.678102 1.306515 0.894757
v 5.678102 1.306515 -5.081830
v 5.678102 1.306515 -4.334757
v 5.678102 1.306515 -3.587683
v 5.678102 1.306515 -2.840610
v 5.678102 1.306515 -2.093537
v 5.678102 1.306515 -1.346463
v 5.678102 1.306515 -0.599390
v 5.678102 1.306515 0.147683
v 0.756362 1.306515 0.147683
v 0.756362 1.306515 -0.599390
v 0.756362 1.306515 -1.346463
v 0.756362 1.306515 -2.093537
v 0.756362 1.306515 -2.840610
v 0.756362 1.306515 -3.587683
v 0.756362 1.306515 -4.334757
v 0.756362 1.306515 -5.081830
v -0.756362 -0.256344 -5.081830
v -0.756362 -0.256344 -4.334756
v -0.756362 -0.256344 -3.587683
v -0.756362 -0.256344 -2.840610
v -0.756362 -0.256344 -2.093536
v -0.756362 -0.256344 -1.346463
v -0.756362 -0.256344 -0.599390
v -0.756362 -0.256344 0.147683
v -0.756362 2.016905 0.147683
v -0.756362 2.016905 -0.599390
v -0.756362 2.016905 -1.346463
v -0.756362 2.016905 -2.093537
v -0.756362 2.016905 -2.840610
v -0.756362 2.016905 -3.587683
v -0.756362 2.016905 -4.334756
v -0.756362 2.016905 -5.081830
v -5.678102 -0.256344 0.147683
v -5.678102 -0.256344 -0.599390
v -5.678102 -0.256344 -1.346463
v -5.678102 -0.256344 -2.093537
v -5.678102 -0.256344 -2.840610
v -5.678102 -0.256344 -3.587683
v -5.678102 -0.256344 -4.334756
v -5.678102 -0.256344 -5.081830
v -5.678102 2.016905 -5.081830
v -5.678102 2.016905 -4.334756
v -5.678102 2.016905 -3.587683
v -5.678102 2.016905 -2.840610
v -5.678102 2.016905 -2.093536
v -5.678102 2.016905 -1.346463
v -5.678102 2.016905 -0.599390
v -5.678102 2.016905 0.147683
v -0.756362 2.016905 0.894757
v -0.756362 2.016905 -5.828903
v -5.678102 2.016905 -5.828903
v -5.678102 2.016905 0.894757
v -5.678102 2.016905 -5.081830
v -5.678102 2.016905 -4.334756
v -5.678102 2.016905 -3.587683
v -5.678102 2.016905 -2.840610
v -5.678102 2.016905 -2.093536
v -5.678102 2.016905 -1.346463
v -5.678102 2.016905 -0.599390
v -5.678102 2.016905 0.147683
v -0.756362 2.016905 0.147683
v -0.756362 2.016905 -0.599390
v -0.756362 2.016905 -1.346463
v -0.756362 2.016905 -2.093537
v -0.756362 2.016905 -2.840610
v -0.756362 2.016905 -3.587683
v -0.756362 2.016905 -4.334756
v -0.756362 2.016905 -5.081830
v -0.756362 1.539523 -5.828903
v -5.678102 1.539523 -5.828903
v -5.678102 1.539523 0.894757
v -0.756362 1.539523 0.894757
v -5.678102 1.539523 -5.081830
v -5.678102 1.539523 -4.334756
v -5.678102 1.539523 -3.587683
v -5.678102 1.539523 -2.840610
v -5.678102 1.539523 -2.093536
v -5.678102 1.539523 -1.346463
v -5.678102 1.539523 -0.599390
v -5.678102 1.539523 0.147683
v -0.756362 1.539523 0.147683
v -0.756362 1.539523 -0.599390
v -0.756362 1.539523 -1.346463
v -0.756362 1.539523 -2.093537
v -0.756362 1.539523 -2.840610
v -0.756362 1.539523 -3.587683
v -0.756362 1.539523 -4.334756
v -0.756362 1.539523 -5.081830
v -0.346396 1.390210 1.267935
v 0.346396 1.390210 1.267935
v -0.346396 1.701318 1.267937
v 0.346396 1.701318 1.267937
v 0.328698 1.647730 1.276170
v 0.142706 1.647730 1.276170
v 0.142706 1.619015 1.276170
v 0.219713 1.619015 1.276170
v 0.219713 1.425191 1.276170
v 0.251691 1.425191 1.276170
v 0.251691 1.619015 1.276170
v 0.328698 1.619015 1.276170
v 0.112360 1.647730 1.276170
v 0.080382 1.647730 1.276170
v 0.080382 1.425191 1.276170
v 0.112360 1.425191 1.276170
v 0.048731 1.647730 1.276170
v 0.010227 1.647730 1.276170
v -0.059276 1.562891 1.276170
v -0.129104 1.647730 1.276170
v -0.167934 1.647730 1.276170
v -0.078854 1.540376 1.276170
v -0.174787 1.425191 1.276170
v -0.135957 1.425191 1.276170
v -0.059276 1.517209 1.276170
v 0.016427 1.425191 1.276170
v 0.054930 1.425191 1.276170
v -0.040024 1.540376 1.276170
v -0.187839 1.647730 1.276170
v -0.314118 1.647730 1.276170
v -0.314118 1.425191 1.276170
v -0.184902 1.425191 1.276170
v -0.184902 1.453906 1.276170
v -0.282140 1.453906 1.276170
v -0.282140 1.523082 1.276170
v -0.191102 1.523082 1.276170
v -0.191102 1.551797 1.276170
v -0.282140 1.551797 1.276170
v -0.282140 1.619015 1.276170
v -0.187839 1.619015 1.276170
v -0.784832 1.676314 -1.833826
v -0.784832 -0.323686 -1.833826
v -0.784832 1.676314 -3.833826
v -0.784832 -0.323686 -3.833826
v 0.775153 1.676314 -3.833825
v 0.775153 -0.323686 -3.833825
v 0.775153 1.676314 -1.833825
v 0.775153 -0.323686 -1.833825
v -1.000000 1.676314 -4.761533
v -1.000000 -0.323686 -4.761533
v 1.000000 1.676314 -4.761532
v 1.000000 -0.323686 -4.761532
v -1.000000 1.676314 -4.761533
v -1.000000 1.426314 -4.761533
v -1.000000 1.176314 -4.761533
v -1.000000 0.926314 -4.761533
v -1.000000 0.676314 -4.761533
v -1.000000 0.426314 -4.761533
v -1.000000 0.176314 -4.761533
v 1.000000 0.176314 -4.761532
v 1.000000 0.426314 -4.761532
v 1.000000 0.676314 -4.761532
v 1.000000 0.926314 -4.761532
v 1.000000 1.176314 -4.761532
v 1.000000 1.426314 -4.761532
v 1.000000 1.676314 -4.761532
v 0.866666 1.676314 -4.761532
v 0.733333 1.676314 -4.761532
v 0.600000 1.676314 -4.761532
v 0.466667 1.676314 -4.761532
v 0.333333 1.676314 -4.761533
v 0.200000 1.676314 -4.761533
v 0.066667 1.676314 -4.761533
v -0.066667 1.676314 -4.761533
v -0.200000 1.676314 -4.761533
v -0.333333 1.676314 -4.761533
v -0.466667 1.676314 -4.761533
v -0.600000 1.676314 -4.761533
v -0.733333 1.676314 -4.761533
v -0.866667 1.676314 -4.761533
v -0.866666 -0.323686 -4.761533
v -0.733333 -0.323686 -4.761533
v -0.600000 -0.323686 -4.761533
v -0.466667 -0.323686 -4.761533
v -0.333333 -0.323686 -4.761533
v -0.200000 -0.323686 -4.761533
v -0.066667 -0.323686 -4.761533
v 0.066667 -0.323686 -4.761533
v 0.200000 -0.323686 -4.761533
v 0.333333 -0.323686 -4.761533
v 0.466667 -0.323686 -4.761532
v 0.600000 -0.323686 -4.761532
v 0.733333 -0.323686 -4.761532
v 0.866667 -0.323686 -4.761532
v -0.866667 1.676314 -4.761533
v -0.733333 1.676314 -4.761533
v -0.600000 1.676314 -4.761533
v -0.466667 1.676314 -4.761533
v -0.333333 1.676314 -4.761533
v -0.200000 1.676314 -4.761533
v -0.066667 1.676314 -4.761533
v 0.066667 1.676314 -4.761533
v 0.200000 1.676314 -4.761533
v 0.333333 1.676314 -4.761533
v 0.466667 1.676314 -4.761532
v 0.600000 1.676314 -4.761532
v 0.733333 1.676314 -4.761532
v 0.866666 1.676314 -4.761532
v -0.866667 1.426314 -4.761533
v -0.733333 1.426314 -4.761533
v -0.600000 1.426314 -4.761533
v -0.466667 1.426314 -4.761533
v -0.333333 1.426314 -4.761533
v -0.200000 1.426314 -4.761533
v -0.066667 1.426314 -4.761533
v 0.066667 1.426314 -4.761533
v 0.200000 1.426314 -4.761533
v 0.333333 1.426314 -4.761533
v 0.466667 1.426314 -4.761532
v 0.600000 1.426314 -4.761532
v 0.733333 1.426314 -4.761532
v 0.866666 1.426314 -4.761532
v -0.866667 1.176314 -4.761533
v -0.733333 1.176314 -4.761533
v -0.600000 1.176314 -4.761533
v -0.466667 1.176314 -4.761533
v -0.333333 1.176314 -4.761533
v -0.200000 1.176314 -4.761533
v -0.066667 1.176314 -4.761533
v 0.066667 1.176314 -4.761533
v 0.200000 1.176314 -4.761533
v 0.333333 1.176314 -4.761533
v 0.466667 1.176314 -4.761532
v 0.600000 1.176314 -4.761532
v 0.733333 1.176314 -4.761532
v 0.866666 1.176314 -4.761532
v -0.866667 0.926314 -4.761533
v -0.733333 0.926314 -4.761533
v -0.600000 0.926314 -4.761533
v -0.466667 0.926314 -4.761533
v -0.333333 0.926314 -4.761533
v -0.200000 0.926314 -4.761533
v -0.066667 0.926314 -4.761533
v 0.066667 0.926314 -4.761533
v 0.200000 0.926314 -4.761533
v 0.333333 0.926314 -4.761533
v 0.466667 0.926314 -4.761532
v 0.600000 0.926314 -4.761532
v 0.733333 0.926314 -4.761532
v 0.866667 0.926314 -4.761532
v -0.866667 0.676314 -4.761533
v -0.733333 0.676314 -4.761533
v -0.600000 0.676314 -4.761533
v -0.466667 0.676314 -4.761533
v -0.333333 0.676314 -4.761533
v -0.200000 0.676314 -4.761533
v -0.066667 0.676314 -4.761533
v 0.066667 0.676314 -4.761533
v 0.200000 0.676314 -4.761533
v 0.333333 0.676314 -4.761533
v 0.466667 0.676314 -4.761532
v 0.600000 0.676314 -4.761532
v 0.733333 0.676314 -4.761532
v 0.866667 0.676314 -4.761532
v -0.866667 0.426314 -4.761533
v -0.733333 0.426314 -4.761533
v -0.600000 0.426314 -4.761533
v -0.466667 0.426314 -4.761533
v -0.333333 0.426314 -4.761533
v -0.200000 0.426314 -4.761533
v -0.066667 0.426314 -4.761533
v 0.066667 0.426314 -4.761533
v 0.200000 0.426314 -4.761533
v 0.333333 0.426314 -4.761533
v 0.466667 0.426314 -4.761532
v 0.600000 0.426314 -4.761532
v 0.733333 0.426314 -4.761532
v 0.866667 0.426314 -4.761532
v -0.866666 0.176314 -4.761533
v -0.733333 0.176314 -4.761533
v -0.600000 0.176314 -4.761533
v -0.466667 0.176314 -4.761533
v -0.333333 0.176314 -4.761533
v -0.200000 0.176314 -4.761533
v -0.066667 0.176314 -4.761533
v 0.066667 0.176314 -4.761533
v 0.200000 0.176314 -4.761533
v 0.333333 0.176314 -4.761533
v 0.466667 0.176314 -4.761532
v 0.600000 0.176314 -4.761532
v 0.733333 0.176314 -4.761532
v 0.866667 0.176314 -4.761532
vn -1.0000 -0.0000 -0.0000
vn -0.0000 1.0000 -0.0000
vn 1.0000 -0.0000 -0.0000
vn -0.0000 -0.0000 1.0000
vn -0.0000 -0.0000 -1.0000
vn -0.0000 -1.0000 -0.0000
vt 0.284520 0.500488
vt 0.312378 0.500488
vt 0.312378 0.625244
vt 0.284520 0.625244
vt 0.284520 0.750000
vt 0.312378 0.750000
vt 0.312378 0.874756
vt 0.284520 0.874756
vt 0.312378 0.999512
vt 0.284520 0.999512
vt 0.312378 0.652968
vt 0.284520 0.652968
vt 0.312378 0.666829
vt 0.284520 0.666829
vt 0.312378 0.680691
vt 0.284520 0.680691
vt 0.312378 0.694553
vt 0.284520 0.694553
vt 0.312378 0.708415
vt 0.284520 0.708415
vt 0.312378 0.722276
vt 0.284520 0.722276
vt 0.312378 0.736138
vt 0.284520 0.736138
vt 0.187622 0.736138
vt 0.187622 0.750000
vt 0.187622 0.722276
vt 0.187622 0.708415
vt 0.187622 0.694553
vt 0.187622 0.666829
vt 0.187622 0.680691
vt 0.187622 0.652968
vt 0.187622 0.625244
vt 0.187622 0.874756
vt 0.187622 0.999512
vt 0.187622 0.500488
vt 0.500488 0.500488
vt 0.999512 0.500488
vt 0.999512 0.999512
vt 0.500488 0.999512
vt 0.000488 0.000488
vt 0.499512 0.000488
vt 0.499512 0.499512
vt 0.000488 0.499512
vt 0.273392 0.611382
vt 0.312378 0.611382
vt 0.273392 0.625244
vt 0.273392 0.750000
vt 0.273392 0.860894
vt 0.312378 0.860894
vt 0.273392 0.874756
vt 0.273392 0.999512
vt 0.062866 0.860894
vt 0.187622 0.860894
vt 0.062866 0.874756
vt 0.437134 0.860894
vt 0.437134 0.874756
vt 0.437134 0.750000
vt 0.437134 0.763862
vt 0.312378 0.763862
vt 0.437134 0.777724
vt 0.312378 0.777724
vt 0.437134 0.791585
vt 0.312378 0.791585
vt 0.437134 0.805447
vt 0.312378 0.805447
vt 0.437134 0.819309
vt 0.312378 0.819309
vt 0.437134 0.833171
vt 0.312378 0.833171
vt 0.437134 0.847032
vt 0.312378 0.847032
vt 0.062866 0.750000
vt 0.187622 0.763862
vt 0.062866 0.763862
vt 0.187622 0.777724
vt 0.062866 0.777724
vt 0.187622 0.791585
vt 0.062866 0.791585
vt 0.187622 0.805447
vt 0.062866 0.805447
vt 0.187622 0.819309
vt 0.062866 0.819309
vt 0.187622 0.833171
vt 0.062866 0.833171
vt 0.187622 0.847032
vt 0.062866 0.847032
vt 0.273392 0.763862
vt 0.273392 0.777724
vt 0.273392 0.791585
vt 0.273392 0.805447
vt 0.273392 0.819309
vt 0.273392 0.833171
vt 0.273392 0.847032
vt 0.273392 0.500488
vt 0.312378 0.514350
vt 0.273392 0.514350
vt 0.312378 0.528212
vt 0.273392 0.528212
vt 0.312378 0.542074
vt 0.273392 0.542074
vt 0.312378 0.555935
vt 0.273392 0.555935
vt 0.312378 0.569797
vt 0.273392 0.569797
vt 0.312378 0.583659
vt 0.273392 0.583659
vt 0.312378 0.597521
vt 0.273392 0.597521
vt 0.187622 0.597521
vt 0.187622 0.611382
vt 0.187622 0.583659
vt 0.187622 0.569797
vt 0.187622 0.542074
vt 0.187622 0.555935
vt 0.187622 0.528212
vt 0.187622 0.514350
vt 0.312378 0.791585
vt 0.312378 0.819309
vt 0.437134 0.819309
vt 0.187622 0.763862
vt 0.187622 0.777723
vt 0.187622 0.791585
vt 0.187622 0.805447
vt 0.187622 0.819309
vt 0.312378 0.791585
vt 0.312378 0.819309
vt 0.286179 0.597521
vt 0.286179 0.611382
vt 0.286179 0.583659
vt 0.286179 0.569797
vt 0.286179 0.555935
vt 0.286179 0.542074
vt 0.286179 0.528212
vt 0.286179 0.514350
vt 0.286179 0.500488
vt 0.286179 0.847032
vt 0.286179 0.860894
vt 0.286179 0.833171
vt 0.286179 0.819309
vt 0.286179 0.805447
vt 0.286179 0.791585
vt 0.286179 0.777724
vt 0.286179 0.763862
vt 0.286179 0.750000
vt 0.286179 0.874756
vt 0.286179 0.999512
vt 0.286179 0.625244
vt 0.504674 0.484863
vt 0.500488 0.484863
vt 0.502581 0.484863
vt 0.515137 0.484863
vt 0.506766 0.484863
vt 0.508859 0.484863
vt 0.513044 0.484863
vt 0.510951 0.484863
vt 0.510254 0.484863
vt 0.505371 0.484863
vt 0.507147 0.484863
vt 0.504483 0.484863
vt 0.505815 0.484863
vt 0.503152 0.484863
vt 0.501820 0.484863
vt 0.508478 0.484863
vt 0.511142 0.484863
vt 0.513805 0.484863
vt 0.509810 0.484863
vt 0.512473 0.484863
vt 0.516113 0.484863
vt 0.530762 0.484863
vt 0.530762 0.499512
vt 0.516113 0.499512
vt 0.542725 0.498535
vt 0.546387 0.498535
vt 0.546387 0.499512
vt 0.542725 0.499512
vt 0.531738 0.498535
vt 0.531738 0.499512
vt 0.533569 0.498535
vt 0.533569 0.499512
vt 0.535400 0.498535
vt 0.535400 0.499512
vt 0.537231 0.498535
vt 0.537231 0.499512
vt 0.539062 0.498535
vt 0.539062 0.499512
vt 0.540894 0.498535
vt 0.540894 0.499512
vt 0.540894 0.484863
vt 0.542725 0.484863
vt 0.542725 0.485840
vt 0.540894 0.485840
vt 0.542725 0.486816
vt 0.540894 0.486816
vt 0.542725 0.487793
vt 0.540894 0.487793
vt 0.542725 0.488770
vt 0.540894 0.488770
vt 0.542725 0.489746
vt 0.540894 0.489746
vt 0.542725 0.490723
vt 0.540894 0.490723
vt 0.542725 0.491699
vt 0.540894 0.491699
vt 0.542725 0.492676
vt 0.540894 0.492676
vt 0.542725 0.493652
vt 0.540894 0.493652
vt 0.542725 0.494629
vt 0.540894 0.494629
vt 0.542725 0.495605
vt 0.540894 0.495605
vt 0.542725 0.496582
vt 0.540894 0.496582
vt 0.542725 0.497559
vt 0.540894 0.497559
vt 0.539062 0.484863
vt 0.539062 0.485840
vt 0.539062 0.486816
vt 0.539062 0.487793
vt 0.539062 0.488770
vt 0.539062 0.489746
vt 0.539062 0.490723
vt 0.539062 0.491699
vt 0.539062 0.492676
vt 0.539062 0.493652
vt 0.539062 0.494629
vt 0.539062 0.495605
vt 0.539062 0.496582
vt 0.539062 0.497559
vt 0.537231 0.484863
vt 0.537231 0.485840
vt 0.537231 0.486816
vt 0.537231 0.487793
vt 0.537231 0.488770
vt 0.537231 0.489746
vt 0.537231 0.490723
vt 0.552856 0.490723
vt 0.554688 0.490723
vt 0.554688 0.491699
vt 0.552856 0.491699
vt 0.537231 0.491699
vt 0.537231 0.492676
vt 0.552856 0.492676
vt 0.554688 0.492676
vt 0.554688 0.493652
vt 0.552856 0.493652
vt 0.537231 0.493652
vt 0.537231 0.494629
vt 0.537231 0.495605
vt 0.537231 0.496582
vt 0.537231 0.497559
vt 0.535400 0.484863
vt 0.535400 0.485840
vt 0.535400 0.486816
vt 0.535400 0.487793
vt 0.535400 0.488770
vt 0.535400 0.489746
vt 0.535400 0.490723
vt 0.551025 0.490723
vt 0.551025 0.491699
vt 0.535400 0.491699
vt 0.535400 0.492676
vt 0.551025 0.492676
vt 0.551025 0.493652
vt 0.535400 0.493652
vt 0.535400 0.494629
vt 0.535400 0.495605
vt 0.535400 0.496582
vt 0.535400 0.497559
vt 0.533569 0.484863
vt 0.533569 0.485840
vt 0.533569 0.486816
vt 0.533569 0.487793
vt 0.533569 0.488770
vt 0.533569 0.489746
vt 0.533569 0.490723
vt 0.533569 0.491699
vt 0.533569 0.492676
vt 0.533569 0.493652
vt 0.533569 0.494629
vt 0.533569 0.495605
vt 0.533569 0.496582
vt 0.533569 0.497559
vt 0.531738 0.484863
vt 0.531738 0.485840
vt 0.531738 0.486816
vt 0.531738 0.487793
vt 0.531738 0.488770
vt 0.531738 0.489746
vt 0.531738 0.490723
vt 0.531738 0.491699
vt 0.531738 0.492676
vt 0.531738 0.493652
vt 0.531738 0.494629
vt 0.531738 0.495605
vt 0.531738 0.496582
vt 0.531738 0.497559
vt 0.546387 0.484863
vt 0.546387 0.485840
vt 0.546387 0.486816
vt 0.546387 0.487793
vt 0.546387 0.488770
vt 0.546387 0.489746
vt 0.546387 0.490723
vt 0.546387 0.491699
vt 0.546387 0.492676
vt 0.546387 0.493652
vt 0.546387 0.494629
vt 0.546387 0.495605
vt 0.546387 0.496582
vt 0.546387 0.497559
s 0
usemtl material_atlas_00010_1
f 25/1/1 2/2/1 4/3/1 26/4/1
f 36/5/2 24/6/2 8/6/2 27/5/2
f 27/5/3 8/6/3 6/7/3 28/8/3
f 28/8/4 6/7/4 2/9/4 25/10/4
f 26/4/5 4/3/5 17/11/5 29/12/5
f 29/12/5 17/11/5 18/13/5 30/14/5
f 30/14/5 18/13/5 19/15/5 31/16/5
f 31/16/5 19/15/5 20/17/5 32/18/5
f 32/18/5 20/17/5 21/19/5 33/20/5
f 33/20/5 21/19/5 22/21/5 34/22/5
f 34/22/5 22/21/5 23/23/5 35/24/5
f 35/24/5 23/23/5 24/6/5 36/5/5
f 10/25/5 35/24/5 36/5/5 9/26/5
f 11/27/5 34/22/5 35/24/5 10/25/5
f 12/28/5 33/20/5 34/22/5 11/27/5
f 13/29/5 32/18/5 33/20/5 12/28/5
f 15/30/5 30/14/5 31/16/5 14/31/5
f 16/32/5 29/12/5 30/14/5 15/30/5
f 3/33/5 26/4/5 29/12/5 16/32/5
f 5/34/4 28/8/4 25/10/4 1/35/4
f 7/26/3 27/5/3 28/8/3 5/34/3
f 9/26/2 36/5/2 27/5/2 7/26/2
f 1/36/1 25/1/1 26/4/1 3/33/1
f 37/37/2 38/38/2 40/39/2 39/40/2
f 41/41/6 42/42/6 44/43/6 43/44/6
f 112/45/1 76/46/1 48/3/1 94/47/1
f 94/47/5 48/3/5 52/6/5 95/48/5
f 104/49/3 92/50/3 50/7/3 96/51/3
f 96/51/4 50/7/4 46/9/4 93/52/4
f 68/53/6 77/54/6 49/34/6 45/55/6
f 92/50/2 69/56/2 46/57/2 50/7/2
f 164/46/2 146/3/2 56/3/2 128/46/2
f 146/3/2 147/6/2 60/6/2 56/3/2
f 156/50/2 148/7/2 58/7/2 144/50/2
f 148/7/2 145/9/2 54/9/2 58/7/2
f 120/53/6 53/55/6 57/34/6 129/54/6
f 144/50/2 58/7/2 54/57/2 121/56/2
f 52/6/2 48/58/2 76/59/2 85/60/2
f 85/60/2 76/59/2 75/61/2 86/62/2
f 86/62/2 75/61/2 74/63/2 87/64/2
f 87/64/2 74/63/2 73/65/2 88/66/2
f 88/66/2 73/65/2 72/67/2 89/68/2
f 89/68/2 72/67/2 71/69/2 90/70/2
f 90/70/2 71/69/2 70/71/2 91/72/2
f 91/72/2 70/71/2 69/56/2 92/50/2
f 47/73/6 51/26/6 84/74/6 61/75/6
f 61/75/6 84/74/6 83/76/6 62/77/6
f 62/77/6 83/76/6 82/78/6 63/79/6
f 63/79/6 82/78/6 81/80/6 64/81/6
f 64/81/6 81/80/6 80/82/6 65/83/6
f 65/83/6 80/82/6 79/84/6 66/85/6
f 66/85/6 79/84/6 78/86/6 67/87/6
f 67/87/6 78/86/6 77/54/6 68/53/6
f 95/48/3 52/6/3 85/60/3 97/88/3
f 97/88/3 85/60/3 86/62/3 98/89/3
f 98/89/3 86/62/3 87/64/3 99/90/3
f 99/90/3 87/64/3 88/66/3 100/91/3
f 100/91/3 88/66/3 89/68/3 101/92/3
f 101/92/3 89/68/3 90/70/3 102/93/3
f 102/93/3 90/70/3 91/72/3 103/94/3
f 103/94/3 91/72/3 92/50/3 104/49/3
f 93/95/1 46/2/1 69/96/1 105/97/1
f 105/97/1 69/96/1 70/98/1 106/99/1
f 106/99/1 70/98/1 71/100/1 107/101/1
f 107/101/1 71/100/1 72/102/1 108/103/1
f 108/103/1 72/102/1 73/104/1 109/105/1
f 109/105/1 73/104/1 74/106/1 110/107/1
f 110/107/1 74/106/1 75/108/1 111/109/1
f 111/109/1 75/108/1 76/46/1 112/45/1
f 62/110/1 111/109/1 112/45/1 61/111/1
f 63/112/1 110/107/1 111/109/1 62/110/1
f 64/113/1 109/105/1 110/107/1 63/112/1
f 66/114/1 107/101/1 108/103/1 65/115/1
f 67/116/1 106/99/1 107/101/1 66/114/1
f 68/117/1 105/97/1 106/99/1 67/116/1
f 45/36/1 93/95/1 105/97/1 68/117/1
f 78/86/3 103/94/3 104/49/3 77/54/3
f 79/84/3 102/93/3 103/94/3 78/86/3
f 80/82/3 101/92/3 102/93/3 79/84/3
f 81/80/3 100/91/3 101/92/3 80/82/3
f 82/78/3 99/90/3 100/91/3 81/80/3
f 83/76/3 98/89/3 99/90/3 82/78/3
f 84/74/3 97/88/3 98/89/3 83/76/3
f 51/26/3 95/48/3 97/88/3 84/74/3
f 49/34/4 96/51/4 93/52/4 45/35/4
f 77/54/3 104/49/3 96/51/3 49/34/3
f 47/33/5 94/47/5 95/48/5 51/26/5
f 61/111/1 112/45/1 94/47/1 47/33/1
f 60/6/2 137/60/2 128/59/2 56/58/2
f 137/60/2 138/62/2 127/61/2 128/59/2
f 138/62/2 139/118/2 126/63/2 127/61/2
f 139/118/2 140/66/2 125/65/2 126/63/2
f 140/66/2 141/119/2 124/120/2 125/65/2
f 141/119/2 142/70/2 123/69/2 124/120/2
f 142/70/2 143/72/2 122/71/2 123/69/2
f 143/72/2 144/50/2 121/56/2 122/71/2
f 55/73/6 113/75/6 136/121/6 59/26/6
f 113/75/6 114/77/6 135/122/6 136/121/6
f 114/77/6 115/79/6 134/123/6 135/122/6
f 115/79/6 116/81/6 133/124/6 134/123/6
f 116/81/6 117/83/6 132/125/6 133/124/6
f 117/83/6 118/85/6 131/84/6 132/125/6
f 118/85/6 119/87/6 130/86/6 131/84/6
f 119/87/6 120/53/6 129/54/6 130/86/6
f 147/6/2 149/60/2 137/60/2 60/6/2
f 149/60/2 150/62/2 138/62/2 137/60/2
f 150/62/2 151/126/2 139/118/2 138/62/2
f 151/126/2 152/66/2 140/66/2 139/118/2
f 152/66/2 153/127/2 141/119/2 140/66/2
f 153/127/2 154/70/2 142/70/2 141/119/2
f 154/70/2 155/72/2 143/72/2 142/70/2
f 155/72/2 156/50/2 144/50/2 143/72/2
f 145/2/2 157/96/2 121/96/2 54/2/2
f 157/96/2 158/98/2 122/98/2 121/96/2
f 158/98/2 159/100/2 123/100/2 122/98/2
f 159/100/2 160/102/2 124/102/2 123/100/2
f 160/102/2 161/104/2 125/104/2 124/102/2
f 161/104/2 162/106/2 126/106/2 125/104/2
f 162/106/2 163/108/2 127/108/2 126/106/2
f 163/108/2 164/46/2 128/46/2 127/108/2
f 183/128/3 184/129/3 164/46/3 163/108/3
f 182/130/3 183/128/3 163/108/3 162/106/3
f 181/131/3 182/130/3 162/106/3 161/104/3
f 180/132/3 181/131/3 161/104/3 160/102/3
f 179/133/3 180/132/3 160/102/3 159/100/3
f 178/134/3 179/133/3 159/100/3 158/98/3
f 177/135/3 178/134/3 158/98/3 157/96/3
f 168/136/3 177/135/3 157/96/3 145/2/3
f 175/137/1 176/138/1 156/50/1 155/72/1
f 174/139/1 175/137/1 155/72/1 154/70/1
f 173/140/1 174/139/1 154/70/1 153/127/1
f 172/141/1 173/140/1 153/127/1 152/66/1
f 171/142/1 172/141/1 152/66/1 151/126/1
f 170/143/1 171/142/1 151/126/1 150/62/1
f 169/144/1 170/143/1 150/62/1 149/60/1
f 166/145/1 169/144/1 149/60/1 147/6/1
f 167/146/4 168/147/4 145/9/4 148/7/4
f 176/138/1 167/146/1 148/7/1 156/50/1
f 165/148/5 166/145/5 147/6/5 146/3/5
f 184/129/3 165/148/3 146/3/3 164/46/3
f 113/111/3 55/33/3 165/148/3 184/129/3
f 55/33/5 59/26/5 166/145/5 165/148/5
f 129/54/1 57/34/1 167/146/1 176/138/1
f 57/34/4 53/35/4 168/147/4 167/146/4
f 59/26/1 136/121/1 169/144/1 166/145/1
f 136/121/1 135/122/1 170/143/1 169/144/1
f 135/122/1 134/123/1 171/142/1 170/143/1
f 134/123/1 133/124/1 172/141/1 171/142/1
f 133/124/1 132/125/1 173/140/1 172/141/1
f 132/125/1 131/84/1 174/139/1 173/140/1
f 131/84/1 130/86/1 175/137/1 174/139/1
f 130/86/1 129/54/1 176/138/1 175/137/1
f 53/36/3 120/117/3 177/135/3 168/136/3
f 120/117/3 119/116/3 178/134/3 177/135/3
f 119/116/3 118/114/3 179/133/3 178/134/3
f 118/114/3 117/115/3 180/132/3 179/133/3
f 116/113/3 115/112/3 182/130/3 181/131/3
f 115/112/3 114/110/3 183/128/3 182/130/3
f 114/110/3 113/111/3 184/129/3 183/128/3
f 185/41/4 186/42/4 188/43/4 187/44/4
f 191/149/4 189/150/4 190/151/4
f 191/149/4 196/152/4 189/150/4
f 192/153/6 196/152/6 191/149/6
f 193/154/4 195/155/4 192/153/4
f 195/155/2 196/152/2 192/153/2
f 193/154/4 194/156/4 195/155/4
f 199/157/4 197/150/4 198/158/4
f 199/157/4 200/152/4 197/150/4
f 206/159/4 204/160/4 205/161/4
f 206/159/4 203/162/4 204/160/4
f 203/162/4 201/150/4 202/163/4
f 203/162/4 212/152/4 201/150/4
f 206/159/4 212/152/4 203/162/4
f 207/164/4 212/152/4 206/159/4
f 207/164/4 209/165/4 212/152/4
f 209/165/4 211/166/4 212/152/4
f 207/164/4 208/167/4 209/165/4
f 210/168/4 211/166/4 209/165/4
f 215/162/4 223/166/4 214/163/4
f 223/166/4 213/150/4 214/163/4
f 223/166/4 224/152/4 213/150/4
f 215/162/4 222/168/4 223/166/4
f 215/162/4 219/164/4 222/168/4
f 219/164/4 221/165/4 222/168/4
f 219/164/4 220/167/4 221/165/4
f 215/162/4 218/159/4 219/164/4
f 215/162/4 217/161/4 218/159/4
f 215/162/4 216/160/4 217/161/4
f 225/169/3 226/170/3 228/171/3 227/172/3
f 229/169/1 230/170/1 232/171/1 231/172/1
f 376/173/4 278/174/4 236/175/4 244/176/4
f 251/177/2 292/177/2 250/178/2 235/178/2
f 292/177/4 306/179/4 249/180/4 250/178/4
f 306/179/4 320/181/4 248/182/4 249/180/4
f 320/181/4 334/183/4 247/184/4 248/182/4
f 334/183/4 348/185/4 246/186/4 247/184/4
f 348/185/4 362/187/4 245/188/4 246/186/4
f 362/187/4 376/173/4 244/176/4 245/188/4
f 242/189/4 243/190/4 363/191/4 349/192/4
f 349/192/4 363/191/4 364/193/4 350/194/4
f 350/194/4 364/193/4 365/195/4 351/196/4
f 351/196/4 365/195/4 366/197/4 352/198/4
f 352/198/4 366/197/4 367/199/4 353/200/4
f 353/200/4 367/199/4 368/201/4 354/202/4
f 354/202/4 368/201/4 369/203/4 355/204/4
f 355/204/4 369/203/4 370/205/4 356/206/4
f 356/206/4 370/205/4 371/207/4 357/208/4
f 357/208/4 371/207/4 372/209/4 358/210/4
f 358/210/4 372/209/4 373/211/4 359/212/4
f 359/212/4 373/211/4 374/213/4 360/214/4
f 360/214/4 374/213/4 375/215/4 361/216/4
f 361/216/4 375/215/4 376/173/4 362/187/4
f 241/217/4 242/189/4 349/192/4 335/218/4
f 335/218/4 349/192/4 350/194/4 336/219/4
f 336/219/4 350/194/4 351/196/4 337/220/4
f 337/220/4 351/196/4 352/198/4 338/221/4
f 338/221/4 352/198/4 353/200/4 339/222/4
f 339/222/4 353/200/4 354/202/4 340/223/4
f 340/223/4 354/202/4 355/204/4 341/224/4
f 341/224/4 355/204/4 356/206/4 342/225/4
f 342/225/4 356/206/4 357/208/4 343/226/4
f 343/226/4 357/208/4 358/210/4 344/227/4
f 344/227/4 358/210/4 359/212/4 345/228/4
f 345/228/4 359/212/4 360/214/4 346/229/4
f 346/229/4 360/214/4 361/216/4 347/230/4
f 347/230/4 361/216/4 362/187/4 348/185/4
f 240/231/4 241/217/4 335/218/4 321/232/4
f 321/232/4 335/218/4 336/219/4 322/233/4
f 322/233/4 336/219/4 337/220/4 323/234/4
f 323/234/4 337/220/4 338/221/4 324/235/4
f 324/235/4 338/221/4 339/222/4 325/236/4
f 325/236/4 339/222/4 340/223/4 326/237/4
f 326/238/4 340/239/4 341/240/4 327/241/4
f 327/242/4 341/224/4 342/225/4 328/243/4
f 328/244/4 342/245/4 343/246/4 329/247/4
f 329/248/4 343/226/4 344/227/4 330/249/4
f 330/249/4 344/227/4 345/228/4 331/250/4
f 331/250/4 345/228/4 346/229/4 332/251/4
f 332/251/4 346/229/4 347/230/4 333/252/4
f 333/252/4 347/230/4 348/185/4 334/183/4
f 239/253/4 240/231/4 321/232/4 307/254/4
f 307/254/4 321/232/4 322/233/4 308/255/4
f 308/255/4 322/233/4 323/234/4 309/256/4
f 309/256/4 323/234/4 324/235/4 310/257/4
f 310/257/4 324/235/4 325/236/4 311/258/4
f 311/258/4 325/236/4 326/237/4 312/259/4
f 312/260/4 326/238/4 327/241/4 313/261/4
f 313/262/4 327/242/4 328/243/4 314/263/4
f 314/264/4 328/244/4 329/247/4 315/265/4
f 315/266/4 329/248/4 330/249/4 316/267/4
f 316/267/4 330/249/4 331/250/4 317/268/4
f 317/268/4 331/250/4 332/251/4 318/269/4
f 318/269/4 332/251/4 333/252/4 319/270/4
f 319/270/4 333/252/4 334/183/4 320/181/4
f 238/271/4 239/253/4 307/254/4 293/272/4
f 293/272/4 307/254/4 308/255/4 294/273/4
f 294/273/4 308/255/4 309/256/4 295/274/4
f 295/274/4 309/256/4 310/257/4 296/275/4
f 296/275/4 310/257/4 311/258/4 297/276/4
f 297/276/4 311/258/4 312/259/4 298/277/4
f 298/277/4 312/259/4 313/262/4 299/278/4
f 299/278/4 313/262/4 314/263/4 300/279/4
f 300/279/4 314/263/4 315/266/4 301/280/4
f 301/280/4 315/266/4 316/267/4 302/281/4
f 302/281/4 316/267/4 317/268/4 303/282/4
f 303/282/4 317/268/4 318/269/4 304/283/4
f 304/283/4 318/269/4 319/270/4 305/284/4
f 305/284/4 319/270/4 320/181/4 306/179/4
f 237/285/4 238/271/4 293/272/4 279/286/4
f 279/286/4 293/272/4 294/273/4 280/287/4
f 280/287/4 294/273/4 295/274/4 281/288/4
f 281/288/4 295/274/4 296/275/4 282/289/4
f 282/289/4 296/275/4 297/276/4 283/290/4
f 283/290/4 297/276/4 298/277/4 284/291/4
f 284/291/4 298/277/4 299/278/4 285/292/4
f 285/292/4 299/278/4 300/279/4 286/293/4
f 286/293/4 300/279/4 301/280/4 287/294/4
f 287/294/4 301/280/4 302/281/4 288/295/4
f 288/295/4 302/281/4 303/282/4 289/296/4
f 289/296/4 303/282/4 304/283/4 290/297/4
f 290/297/4 304/283/4 305/284/4 291/298/4
f 291/298/4 305/284/4 306/179/4 292/177/4
f 233/285/2 237/285/2 279/286/2 264/286/2
f 264/286/2 279/286/2 280/287/2 263/287/2
f 263/287/2 280/287/2 281/288/2 262/288/2
f 262/288/6 281/288/6 282/289/6 261/289/6
f 261/289/6 282/289/6 283/290/6 260/290/6
f 260/290/6 283/290/6 284/291/6 259/291/6
f 259/291/6 284/291/6 285/292/6 258/292/6
f 258/292/6 285/292/6 286/293/6 257/293/6
f 257/293/2 286/293/2 287/294/2 256/294/2
f 256/294/6 287/294/6 288/295/6 255/295/6
f 255/295/6 288/295/6 289/296/6 254/296/6
f 254/296/6 289/296/6 290/297/6 253/297/6
f 253/297/6 290/297/6 291/298/6 252/298/6
f 252/298/2 291/298/2 292/177/2 251/177/2
f 243/190/4 234/299/4 265/300/4 363/191/4
f 363/191/4 265/300/4 266/301/4 364/193/4
f 364/193/4 266/301/4 267/302/4 365/195/4
f 365/195/4 267/302/4 268/303/4 366/197/4
f 366/197/4 268/303/4 269/304/4 367/199/4
f 367/199/4 269/304/4 270/305/4 368/201/4
f 368/201/4 270/305/4 271/306/4 369/203/4
f 369/203/4 271/306/4 272/307/4 370/205/4
f 370/205/4 272/307/4 273/308/4 371/207/4
f 371/207/4 273/308/4 274/309/4 372/209/4
f 372/209/4 274/309/4 275/310/4 373/211/4
f 373/211/4 275/310/4 276/311/4 374/213/4
f 374/213/4 276/311/4 277/312/4 375/215/4
f 375/215/4 277/312/4 278/174/4 376/173/4
