# Blender 4.5.12 LTS
# www.blender.org
mtllib SkyDome.mtl
o Skybox_Baked
v -13.813171 20.686739 -1.451822
v -20.672871 13.789256 -2.172805
v -24.385313 4.777258 -2.562999
v -24.863050 0.291943 -2.613211
v -24.097178 -0.099999 -2.532714
v -20.672869 -0.099999 -2.172805
v -4.657879 24.419630 -1.446310
v -9.136759 22.996986 -2.837039
v -13.264518 20.686739 -4.118742
v -16.882528 17.577669 -5.242164
v -19.851753 13.789256 -6.164132
v -22.058086 9.467086 -6.849216
v -23.416740 4.777258 -7.271090
v -23.875502 0.291943 -7.413539
v -23.140047 -0.099999 -7.185175
v -22.058084 -0.099999 -6.849216
v -19.851751 -0.099999 -6.164132
v -16.882528 -0.099999 -5.242163
v -13.105496 -0.099999 -4.069365
v -8.177511 -0.099999 -2.539185
v -1.676895 -0.099999 -0.520691
v -4.286218 24.419630 -2.327226
v -8.407721 22.996986 -4.565019
v -12.206116 20.686739 -6.627380
v -15.535439 17.577669 -8.435055
v -18.267742 13.789256 -9.918575
v -20.298031 9.467086 -11.020929
v -21.548273 4.777258 -11.699758
v -21.970428 0.291943 -11.928968
v -21.293659 -0.099999 -11.561514
v -20.298029 -0.099999 -11.020928
v -18.267740 -0.099999 -9.918573
v -15.535439 -0.099999 -8.435055
v -12.059783 -0.099999 -6.547928
v -7.525012 -0.099999 -4.085748
v -1.543092 -0.099999 -0.837832
v -3.749840 24.419630 -3.118709
v -7.355577 22.996986 -6.117568
v -10.678640 20.686739 -8.881332
v -13.591333 17.577669 -11.303792
v -15.981714 13.789256 -13.291851
v -17.757933 9.467086 -14.769114
v -18.851721 4.777258 -15.678810
v -19.221045 0.291943 -15.985976
v -18.628969 -0.099999 -15.493549
v -17.757931 -0.099999 -14.769113
v -15.981714 -0.099999 -13.291851
v -13.591331 -0.099999 -11.303791
v -10.550620 -0.099999 -8.774858
v -6.583331 -0.099999 -5.475299
v -1.349989 -0.099999 -1.122776
v -3.069358 24.419630 -3.790341
v -6.020762 22.996986 -7.435022
v -8.740791 20.686739 -10.793979
v -11.124920 17.577669 -13.738131
v -13.081518 13.789256 -16.154329
v -14.535407 9.467086 -17.949732
v -15.430706 4.777258 -19.055332
v -15.733008 0.291943 -19.428650
v -15.248375 -0.099999 -18.830175
v -14.535407 -0.099999 -17.949730
v -13.081517 -0.099999 -16.154329
v -11.124919 -0.099999 -13.738130
v -8.636003 -0.099999 -10.664577
v -5.388656 -0.099999 -6.654436
v -1.105007 -0.099999 -1.364572
v -2.270922 24.419630 -4.316313
v -4.454575 22.996986 -8.466753
v -6.467039 20.686739 -12.291820
v -8.230981 17.577669 -15.644520
v -9.678607 13.789256 -18.396008
v -10.754296 9.467086 -20.440548
v -11.416697 4.777258 -21.699572
v -11.640360 0.291943 -22.124691
v -11.281796 -0.099999 -21.443171
v -10.754294 -0.099999 -20.440546
v -9.678606 -0.099999 -18.396006
v -8.230980 -0.099999 -15.644518
v -6.389509 -0.099999 -12.144459
v -3.986899 -0.099999 -7.577847
v -0.817560 -0.099999 -1.553929
v 0.000000 24.900000 0.000000
v 0.000000 24.900000 0.000000
v 0.000000 24.900000 0.000000
v 0.000000 24.900000 0.000000
v 0.000000 24.900000 0.000000
v 0.000000 24.900000 0.000000
v 0.000000 24.900000 0.000000
v 0.000000 24.900000 0.000000
v 0.000000 24.900000 0.000000
v 0.000000 24.900000 0.000000
v 0.000000 24.900000 0.000000
v 0.000000 24.900000 0.000000
v 0.000000 24.900000 0.000000
v 0.000000 24.900000 0.000000
v 0.000000 24.900000 0.000000
v 0.000000 24.900000 0.000000
v 0.000000 24.900000 0.000000
v 0.000000 24.900000 0.000000
v 0.000000 24.900000 0.000000
v 0.000000 24.900000 0.000000
v 0.000000 24.900000 0.000000
v 0.000000 24.900000 0.000000
v 0.000000 24.900000 0.000000
v 0.000000 24.900000 0.000000
v 0.000000 24.900000 0.000000
v 0.000000 24.900000 0.000000
v 0.000000 24.900000 0.000000
v 0.000000 24.900000 0.000000
v 0.000000 24.900000 0.000000
v 0.000000 24.900000 0.000000
v 0.000000 24.900000 0.000000
v 0.000000 24.900000 0.000000
v -1.385216 24.419630 -4.676411
v -2.717199 22.996986 -9.173111
v -3.944761 20.686739 -13.317292
v -5.020731 17.577669 -16.949699
v -5.903751 13.789256 -19.930735
v -6.559902 9.467086 -22.145849
v -6.963951 4.777258 -23.509905
v -7.100381 0.291943 -23.970491
v -6.881666 -0.099999 -23.232113
v -6.559901 -0.099999 -22.145847
v -5.903751 -0.099999 -19.930733
v -5.020730 -0.099999 -16.949699
v -3.897470 -0.099999 -13.157638
v -2.431926 -0.099999 -8.210047
v -0.498694 -0.099999 -1.683569
v -0.446277 24.419630 -4.856797
v -0.875404 22.996986 -9.526952
v -1.270889 20.686739 -13.830990
v -1.617537 17.577669 -17.603510
v -1.902020 13.789256 -20.699535
v -2.113415 9.467086 -23.000093
v -2.243585 4.777258 -24.416769
v -2.287538 0.291943 -24.895121
v -2.217075 -0.099999 -24.128262
v -2.113414 -0.099999 -23.000093
v -1.902019 -0.099999 -20.699535
v -1.617537 -0.099999 -17.603510
v -1.255653 -0.099999 -13.665176
v -0.783497 -0.099999 -8.526738
v -0.160665 -0.099999 -1.748510
v 0.509812 24.419630 -4.850539
v 1.000033 22.996986 -9.514677
v 1.451823 20.686739 -13.813169
v 1.847818 17.577669 -17.580830
v 2.172807 13.789256 -20.672867
v 2.414290 9.467086 -22.970461
v 2.563000 4.777258 -24.385311
v 2.613214 0.291943 -24.863043
v 2.532716 -0.099999 -24.097174
v 2.414290 -0.099999 -22.970459
v 2.172807 -0.099999 -20.672865
v 1.847818 -0.099999 -17.580828
v 1.434418 -0.099999 -13.647569
v 0.895042 -0.099999 -8.515751
v 0.183540 -0.099999 -1.746257
v 1.446310 24.419630 -4.657878
v 2.837039 22.996986 -9.136758
v 4.118742 20.686739 -13.264515
v 5.242163 17.577669 -16.882528
v 6.164134 13.789256 -19.851749
v 6.849216 9.467086 -22.058084
v 7.271091 4.777258 -23.416735
v 7.413541 0.291943 -23.875490
v 7.185176 -0.099999 -23.140045
v 6.849215 -0.099999 -22.058084
v 6.164133 -0.099999 -19.851748
v 5.242162 -0.099999 -16.882526
v 4.069365 -0.099999 -13.105494
v 2.539185 -0.099999 -8.177510
v 0.520691 -0.099999 -1.676896
v 2.327226 24.419630 -4.286217
v 4.565019 22.996986 -8.407719
v 6.627380 20.686739 -12.206114
v 8.435053 17.577669 -15.535439
v 9.918575 13.789256 -18.267738
v 11.020928 9.467086 -20.298029
v 11.699757 4.777258 -21.548269
v 11.928968 0.291943 -21.970421
v 11.561513 -0.099999 -21.293655
v 11.020927 -0.099999 -20.298027
v 9.918574 -0.099999 -18.267738
v 8.435053 -0.099999 -15.535438
v 6.547928 -0.099999 -12.059780
v 4.085748 -0.099999 -7.525012
v 0.837832 -0.099999 -1.543094
v 3.118708 24.419630 -3.749839
v 6.117568 22.996986 -7.355576
v 8.881330 20.686739 -10.678638
v 11.303791 17.577669 -13.591331
v 13.291850 13.789256 -15.981712
v 14.769113 9.467086 -17.757931
v 15.678808 4.777258 -18.851717
v 15.985973 0.291943 -19.221037
v 15.493546 -0.099999 -18.628963
v 14.769112 -0.099999 -17.757929
v 13.291850 -0.099999 -15.981710
v 11.303789 -0.099999 -13.591331
v 8.774857 -0.099999 -10.550617
v 5.475298 -0.099999 -6.583330
v 1.122776 -0.099999 -1.349991
v 3.790340 24.419630 -3.069357
v 7.435022 22.996986 -6.020761
v 10.793978 20.686739 -8.740788
v 13.738129 17.577669 -11.124918
v 16.154327 13.789256 -13.081516
v 17.949730 9.467086 -14.535407
v 19.055332 4.777258 -15.430702
v 19.428646 0.291943 -15.733000
v 18.830173 -0.099999 -15.248373
v 17.949726 -0.099999 -14.535405
v 16.154325 -0.099999 -13.081514
v 13.738127 -0.099999 -11.124918
v 10.664575 -0.099999 -8.636000
v 6.654435 -0.099999 -5.388654
v 1.364572 -0.099999 -1.105008
v 4.316312 24.419630 -2.270921
v 8.466753 22.996986 -4.454573
v 12.291819 20.686739 -6.467036
v 15.644518 17.577669 -8.230980
v 18.396006 13.789256 -9.678606
v 20.440546 9.467086 -10.754294
v 21.699568 4.777258 -11.416694
v 22.124685 0.291943 -11.640353
v 21.443167 -0.099999 -11.281794
v 20.440544 -0.099999 -10.754293
v 18.396004 -0.099999 -9.678605
v 15.644517 -0.099999 -8.230980
v 12.144458 -0.099999 -6.389506
v 7.577847 -0.099999 -3.986897
v 1.553928 -0.099999 -0.817562
v 4.676409 24.419630 -1.385216
v 9.173109 22.996986 -2.717198
v 13.317289 20.686739 -3.944759
v 16.949699 17.577669 -5.020730
v 19.930731 13.789256 -5.903750
v 22.145845 9.467086 -6.559900
v 23.509903 4.777258 -6.963948
v 23.970484 0.291943 -7.100375
v 23.232111 -0.099999 -6.881662
v 22.145844 -0.099999 -6.559900
v 19.930731 -0.099999 -5.903750
v 16.949696 -0.099999 -5.020729
v 13.157635 -0.099999 -3.897468
v 8.210046 -0.099999 -2.431925
v 1.683568 -0.099999 -0.498696
v 4.856795 24.419630 -0.446277
v 9.526949 22.996986 -0.875403
v 13.830985 20.686739 -1.270887
v 17.603510 17.577669 -1.617536
v 20.699533 13.789256 -1.902019
v 23.000092 9.467086 -2.113413
v 24.416765 4.777258 -2.243583
v 24.895113 0.291943 -2.287533
v 24.128258 -0.099999 -2.217073
v 23.000090 -0.099999 -2.113414
v 20.699532 -0.099999 -1.902019
v 17.603508 -0.099999 -1.617536
v 13.665172 -0.099999 -1.255652
v 8.526736 -0.099999 -0.783496
v 1.748509 -0.099999 -0.160666
v 4.850537 24.419630 0.509812
v 9.514675 22.996986 1.000033
v 13.813164 20.686739 1.451824
v 17.580828 17.577669 1.847819
v 20.672863 13.789256 2.172807
v 22.970457 9.467086 2.414290
v 24.385305 4.777258 2.563001
v 24.863033 0.291943 2.613217
v 24.097170 -0.099999 2.532717
v 22.970455 -0.099999 2.414290
v 20.672861 -0.099999 2.172807
v 17.580828 -0.099999 1.847819
v 13.647564 -0.099999 1.434418
v 8.515751 -0.099999 0.895042
v 1.746256 -0.099999 0.183538
v 4.657876 24.419630 1.446309
v 9.136756 22.996986 2.837039
v 13.264511 20.686739 4.118742
v 16.882526 17.577669 5.242163
v 19.851746 13.789256 6.164133
v 22.058081 9.467086 6.849215
v 23.416731 4.777258 7.271091
v 23.875483 0.291943 7.413542
v 23.140039 -0.099999 7.185176
v 22.058079 -0.099999 6.849214
v 19.851744 -0.099999 6.164132
v 16.882524 -0.099999 5.242163
v 13.105488 -0.099999 4.069365
v 8.177508 -0.099999 2.539184
v 1.676895 -0.099999 0.520689
v 4.286215 24.419630 2.327225
v 8.407718 22.996986 4.565019
v 12.206109 20.686739 6.627379
v 15.535438 17.577669 8.435053
v 18.267736 13.789256 9.918574
v 20.298025 9.467086 11.020926
v 21.548264 4.777258 11.699757
v 21.970411 0.291943 11.928968
v 21.293652 -0.099999 11.561513
v 20.298025 -0.099999 11.020926
v 18.267735 -0.099999 9.918573
v 15.535436 -0.099999 8.435053
v 12.059775 -0.099999 6.547927
v 7.525011 -0.099999 4.085747
v 1.543093 -0.099999 0.837830
v 3.749838 24.419630 3.118707
v 7.355574 22.996986 6.117568
v 10.678634 20.686739 8.881329
v 13.591331 17.577669 11.303790
v 15.981709 13.789256 13.291849
v 17.757927 9.467086 14.769110
v 18.851711 4.777258 15.678808
v 19.221027 0.291943 15.985971
v 18.628960 -0.099999 15.493546
v 17.757927 -0.099999 14.769108
v 15.981707 -0.099999 13.291848
v 13.591329 -0.099999 11.303789
v 10.550613 -0.099999 8.774855
v 6.583329 -0.099999 5.475297
v 1.349990 -0.099999 1.122773
v 3.069356 24.419630 3.790339
v 6.020761 22.996986 7.435021
v 8.740786 20.686739 10.793975
v 11.124917 17.577669 13.738129
v 13.081513 13.789256 16.154325
v 14.535404 9.467086 17.949724
v 15.430698 4.777258 19.055330
v 15.732992 0.291943 19.428640
v 15.248369 -0.099999 18.830173
v 14.535402 -0.099999 17.949722
v 13.081511 -0.099999 16.154325
v 11.124915 -0.099999 13.738127
v 8.635997 -0.099999 10.664572
v 5.388654 -0.099999 6.654434
v 1.105008 -0.099999 1.364569
v -0.000000 -0.100000 -0.000000
v -0.000000 -0.100000 -0.000000
v -0.000000 -0.100000 -0.000000
v -0.000000 -0.100000 -0.000000
v -0.000000 -0.100000 -0.000000
v -0.000000 -0.100000 -0.000000
v -0.000000 -0.100000 -0.000000
v -0.000000 -0.100000 -0.000000
v -0.000000 -0.100000 -0.000000
v -0.000000 -0.100000 -0.000000
v -0.000000 -0.100000 -0.000000
v -0.000000 -0.100000 -0.000000
v -0.000000 -0.100000 -0.000000
v -0.000000 -0.100000 -0.000000
v -0.000000 -0.100000 -0.000000
v -0.000000 -0.100000 -0.000000
v -0.000000 -0.100000 -0.000000
v -0.000000 -0.100000 -0.000000
v -0.000000 -0.100000 -0.000000
v -0.000000 -0.100000 -0.000000
v -0.000000 -0.100000 -0.000000
v -0.000000 -0.100000 -0.000000
v -0.000000 -0.100000 -0.000000
v -0.000000 -0.100000 -0.000000
v -0.000000 -0.100000 -0.000000
v -0.000000 -0.100000 -0.000000
v -0.000000 -0.100000 -0.000000
v -0.000000 -0.100000 -0.000000
v -0.000000 -0.100000 -0.000000
v -0.000000 -0.100000 -0.000000
v -0.000000 -0.100000 -0.000000
v -0.000000 -0.100000 -0.000000
v 2.270921 24.419630 4.316310
v 4.454573 22.996986 8.466751
v 6.467033 20.686739 12.291814
v 8.230979 17.577669 15.644517
v 9.678602 13.789256 18.396004
v 10.754292 9.467086 20.440544
v 11.416690 4.777258 21.699568
v 11.640347 0.291943 22.124680
v 11.281790 -0.099999 21.443163
v 10.754291 -0.099999 20.440542
v 9.678602 -0.099999 18.396002
v 8.230978 -0.099999 15.644515
v 6.389503 -0.099999 12.144454
v 3.986897 -0.099999 7.577845
v 0.817561 -0.099999 1.553926
v 1.385215 24.419630 4.676408
v 2.717198 22.996986 9.173108
v 3.944757 20.686739 13.317285
v 5.020729 17.577669 16.949696
v 5.903748 13.789256 19.930729
v 6.559899 9.467086 22.145844
v 6.963945 4.777258 23.509901
v 7.100368 0.291943 23.970476
v 6.881660 -0.099999 23.232109
v 6.559898 -0.099999 22.145840
v 5.903748 -0.099999 19.930727
v 5.020729 -0.099999 16.949694
v 3.897465 -0.099999 13.157630
v 2.431925 -0.099999 8.210043
v 0.498696 -0.099999 1.683565
v 0.446276 24.419630 4.856794
v 0.875403 22.996986 9.526948
v 1.270886 20.686739 13.830980
v 1.617535 17.577669 17.603508
v 1.902017 13.789256 20.699530
v 2.113412 9.467086 23.000088
v 2.243580 4.777258 24.416763
v 2.287529 0.291943 24.895103
v 2.217070 -0.099999 24.128254
v 2.113412 -0.099999 23.000086
v 1.902016 -0.099999 20.699530
v 1.617535 -0.099999 17.603506
v 1.255650 -0.099999 13.665167
v 0.783496 -0.099999 8.526735
v 0.160666 -0.099999 1.748506
v -0.509812 24.419630 4.850536
v -0.509812 24.419630 4.850536
v -1.000033 22.996986 9.514673
v -1.000033 22.996986 9.514673
v -1.451825 20.686739 13.813159
v -1.451825 20.686739 13.813159
v -1.847819 17.577669 17.580828
v -1.847819 17.577669 17.580828
v -2.172808 13.789256 20.672859
v -2.172808 13.789256 20.672859
v -2.414291 9.467086 22.970453
v -2.414291 9.467086 22.970453
v -2.563004 4.777258 24.385303
v -2.563004 4.777258 24.385303
v -2.613219 0.291943 24.863026
v -2.613219 0.291943 24.863026
v -2.532720 -0.099999 24.097166
v -2.532720 -0.099999 24.097166
v -2.414291 -0.099999 22.970453
v -2.414291 -0.099999 22.970453
v -2.172808 -0.099999 20.672859
v -2.172808 -0.099999 20.672859
v -1.847819 -0.099999 17.580826
v -1.847819 -0.099999 17.580826
v -1.434419 -0.099999 13.647560
v -1.434419 -0.099999 13.647560
v -0.895042 -0.099999 8.515747
v -0.895042 -0.099999 8.515747
v -0.183538 -0.099999 1.746254
v -0.183538 -0.099999 1.746254
v -1.446309 24.419630 4.657875
v -2.837039 22.996986 9.136754
v -4.118742 20.686739 13.264506
v -5.242163 17.577669 16.882524
v -6.164133 13.789256 19.851742
v -6.849215 9.467086 22.058077
v -7.271093 4.777258 23.416725
v -7.413543 0.291943 23.875475
v -7.185178 -0.099999 23.140036
v -6.849214 -0.099999 22.058077
v -6.164133 -0.099999 19.851740
v -5.242163 -0.099999 16.882523
v -4.069364 -0.099999 13.105484
v -2.539184 -0.099999 8.177506
v -0.520689 -0.099999 1.676893
v -2.327225 24.419630 4.286214
v -4.565018 22.996986 8.407715
v -6.627378 20.686739 12.206105
v -8.435053 17.577669 15.535436
v -9.918573 13.789256 18.267731
v -11.020926 9.467086 20.298023
v -11.699757 4.777258 21.548260
v -11.928968 0.291943 21.970404
v -11.561513 -0.099999 21.293646
v -11.020925 -0.099999 20.298021
v -9.918572 -0.099999 18.267731
v -8.435053 -0.099999 15.535434
v -6.547926 -0.099999 12.059772
v -4.085747 -0.099999 7.525007
v -0.837830 -0.099999 1.543091
v -3.118707 24.419630 3.749837
v -6.117566 22.996986 7.355572
v -8.881328 20.686739 10.678629
v -11.303789 17.577669 13.591329
v -13.291849 13.789256 15.981705
v -14.769109 9.467086 17.757925
v -15.678807 4.777258 18.851707
v -15.985969 0.291943 19.221020
v -15.493546 -0.099999 18.628956
v -14.769108 -0.099999 17.757923
v -13.291847 -0.099999 15.981703
v -11.303788 -0.099999 13.591328
v -8.774854 -0.099999 10.550609
v -5.475296 -0.099999 6.583326
v -1.122773 -0.099999 1.349988
v -3.790339 24.419630 3.069355
v -7.435019 22.996986 6.020759
v -10.793972 20.686739 8.740781
v -13.738127 17.577669 11.124915
v -16.154325 13.789256 13.081509
v -17.949722 9.467086 14.535400
v -19.055328 4.777258 15.430693
v -19.428637 0.291943 15.732986
v -18.830170 -0.099999 15.248363
v -17.949722 -0.099999 14.535400
v -16.154324 -0.099999 13.081507
v -13.738126 -0.099999 11.124914
v -10.664570 -0.099999 8.635992
v -6.654433 -0.099999 5.388653
v -1.364569 -0.099999 1.105006
v -4.316309 24.419630 2.270920
v -8.466749 22.996986 4.454572
v -12.291811 20.686739 6.467029
v -15.644516 17.577669 8.230978
v -18.395998 13.789256 9.678599
v -20.440542 9.467086 10.754290
v -21.699562 4.777258 11.416687
v -22.124672 0.291943 11.640343
v -21.443161 -0.099999 11.281787
v -20.440540 -0.099999 10.754288
v -18.395996 -0.099999 9.678598
v -15.644514 -0.099999 8.230977
v -12.144450 -0.099999 6.389499
v -7.577843 -0.099999 3.986896
v -1.553926 -0.099999 0.817559
v -4.676407 24.419630 1.385215
v -9.173107 22.996986 2.717197
v -13.317281 20.686739 3.944754
v -16.949696 17.577669 5.020728
v -19.930725 13.789256 5.903745
v -22.145840 9.467086 6.559896
v -23.509897 4.777258 6.963943
v -23.970470 0.291943 7.100367
v -23.232103 -0.099999 6.881657
v -22.145838 -0.099999 6.559896
v -19.930723 -0.099999 5.903745
v -16.949694 -0.099999 5.020727
v -13.157626 -0.099999 3.897462
v -8.210043 -0.099999 2.431924
v -1.683565 -0.099999 0.498694
v -4.856792 24.419630 0.446276
v -9.526947 22.996986 0.875402
v -13.830976 20.686739 1.270883
v -17.603508 17.577669 1.617534
v -20.699526 13.789256 1.902015
v -23.000086 9.467086 2.113411
v -24.416758 4.777258 2.243579
v -24.895096 0.291943 2.287527
v -24.128250 -0.099999 2.217069
v -23.000084 -0.099999 2.113411
v -20.699524 -0.099999 1.902014
v -17.603506 -0.099999 1.617534
v -13.665163 -0.099999 1.255648
v -8.526734 -0.099999 0.783495
v -1.748506 -0.099999 0.160664
v -4.850535 24.419630 -0.509812
v -9.514672 22.996986 -1.000033
v -17.580828 17.577669 -1.847821
v -22.970451 9.467086 -2.414292
v -22.970449 -0.099999 -2.414292
v -17.580826 -0.099999 -1.847821
v -13.647552 -0.099999 -1.434420
v -8.515747 -0.099999 -0.895042
v -1.746253 -0.099999 -0.183540
v -4.103338 -0.099999 -1.274120
v -3.775925 -0.099999 -2.050160
v -3.303404 -0.099999 -2.747413
v -2.703937 -0.099999 -3.339084
v -2.000559 -0.099999 -3.802437
v -1.220300 -0.099999 -4.119663
v -0.393145 -0.099999 -4.278574
v 0.449117 -0.099999 -4.273062
v 1.274120 -0.099999 -4.103337
v 2.050159 -0.099999 -3.775924
v 2.747412 -0.099999 -3.303404
v 3.339083 -0.099999 -2.703937
v 3.802435 -0.099999 -2.000558
v 4.119662 -0.099999 -1.220300
v 4.278573 -0.099999 -0.393146
v 4.273060 -0.099999 0.449116
v 4.103335 -0.099999 1.274119
v 3.775922 -0.099999 2.050158
v 3.303403 -0.099999 2.747411
v 2.703936 -0.099999 3.339082
v 2.000558 -0.099999 3.802434
v 1.220299 -0.099999 4.119661
v 0.393145 -0.099999 4.278571
v -0.449116 -0.099999 4.273058
v -0.449116 -0.099999 4.273058
v -1.274119 -0.099999 4.103333
v -2.050158 -0.099999 3.775921
v -2.747411 -0.099999 3.303402
v -3.339081 -0.099999 2.703934
v -3.802434 -0.099999 2.000556
v -4.119659 -0.099999 1.220299
v -4.278570 -0.099999 0.393145
v -4.273057 -0.099999 -0.449117
vn -0.1999 0.9796 -0.0210
vn -0.0000 1.0000 -0.0000
vn -0.1919 0.9796 -0.0596
vn -0.0000 -1.0000 -0.0000
vn -0.2456 -0.9690 -0.0258
vn -0.8819 -0.4622 -0.0927
vn -0.8469 -0.4622 -0.2630
vn -0.2358 -0.9690 -0.0732
vn -0.3858 0.9217 -0.0405
vn -0.3704 0.9217 -0.1150
vn -0.5567 0.8286 -0.0585
vn -0.5346 0.8286 -0.1660
vn -0.7063 0.7041 -0.0742
vn -0.6782 0.7041 -0.2106
vn -0.8288 0.5528 -0.0871
vn -0.7959 0.5528 -0.2471
vn -0.9197 0.3805 -0.0967
vn -0.8832 0.3805 -0.2742
vn -0.9748 0.1981 -0.1025
vn -0.9361 0.1981 -0.2907
vn -0.8127 0.3805 -0.4413
vn -0.8614 0.1981 -0.4677
vn -0.7793 -0.4622 -0.4231
vn -0.1766 0.9796 -0.0959
vn -0.2170 -0.9690 -0.1178
vn -0.3409 0.9217 -0.1851
vn -0.4919 0.8286 -0.2671
vn -0.6241 0.7041 -0.3388
vn -0.7324 0.5528 -0.3976
vn -0.4304 0.8286 -0.3579
vn -0.5460 0.7041 -0.4541
vn -0.6407 0.5528 -0.5329
vn -0.7110 0.3805 -0.5913
vn -0.7536 0.1981 -0.6268
vn -0.6818 -0.4622 -0.5670
vn -0.1545 0.9796 -0.1285
vn -0.1898 -0.9690 -0.1579
vn -0.2982 0.9217 -0.2480
vn -0.6168 0.1981 -0.7617
vn -0.5581 -0.4622 -0.6891
vn -0.1265 0.9796 -0.1562
vn -0.1554 -0.9690 -0.1919
vn -0.2441 0.9217 -0.3014
vn -0.3523 0.8286 -0.4350
vn -0.4469 0.7041 -0.5519
vn -0.5244 0.5528 -0.6476
vn -0.5820 0.3805 -0.7187
vn -0.3307 0.7041 -0.6285
vn -0.3880 0.5528 -0.7375
vn -0.4306 0.3805 -0.8184
vn -0.4564 0.1981 -0.8674
vn -0.4129 -0.4622 -0.7848
vn -0.0936 0.9796 -0.1779
vn -0.1150 -0.9690 -0.2185
vn -0.1806 0.9217 -0.3433
vn -0.2606 0.8286 -0.4954
vn -0.0571 0.9796 -0.1927
vn -0.2519 -0.4622 -0.8502
vn -0.0701 -0.9690 -0.2367
vn -0.1102 0.9217 -0.3719
vn -0.1590 0.8286 -0.5367
vn -0.2017 0.7041 -0.6809
vn -0.2367 0.5528 -0.7990
vn -0.2626 0.3805 -0.8867
vn -0.2784 0.1981 -0.9398
vn -0.0650 0.7041 -0.7072
vn -0.0763 0.5528 -0.8298
vn -0.0846 0.3805 -0.9209
vn -0.0897 0.1981 -0.9761
vn -0.0811 -0.4622 -0.8830
vn -0.0184 0.9796 -0.2001
vn -0.0226 -0.9690 -0.2459
vn -0.0355 0.9217 -0.3863
vn -0.0512 0.8286 -0.5574
vn 0.0927 -0.4622 -0.8819
vn 0.0258 -0.9690 -0.2456
vn 0.0210 0.9796 -0.1999
vn 0.0405 0.9217 -0.3858
vn 0.0585 0.8286 -0.5567
vn 0.0742 0.7041 -0.7063
vn 0.0871 0.5528 -0.8288
vn 0.0967 0.3805 -0.9197
vn 0.1025 0.1981 -0.9748
vn 0.2471 0.5528 -0.7959
vn 0.2742 0.3805 -0.8832
vn 0.2907 0.1981 -0.9361
vn 0.2630 -0.4622 -0.8469
vn 0.0596 0.9796 -0.1919
vn 0.0732 -0.9690 -0.2358
vn 0.1150 0.9217 -0.3704
vn 0.1660 0.8286 -0.5346
vn 0.2106 0.7041 -0.6782
vn 0.0959 0.9796 -0.1766
vn 0.1851 0.9217 -0.3409
vn 0.1178 -0.9690 -0.2170
vn 0.2671 0.8286 -0.4919
vn 0.3388 0.7041 -0.6241
vn 0.3976 0.5528 -0.7324
vn 0.4413 0.3805 -0.8127
vn 0.4677 0.1981 -0.8614
vn 0.4231 -0.4622 -0.7793
vn 0.5329 0.5528 -0.6407
vn 0.5913 0.3805 -0.7110
vn 0.6268 0.1981 -0.7536
vn 0.5670 -0.4622 -0.6818
vn 0.1285 0.9796 -0.1545
vn 0.1579 -0.9690 -0.1898
vn 0.2480 0.9217 -0.2982
vn 0.3579 0.8286 -0.4304
vn 0.4541 0.7041 -0.5460
vn 0.1919 -0.9690 -0.1554
vn 0.3014 0.9217 -0.2441
vn 0.4350 0.8286 -0.3523
vn 0.5519 0.7041 -0.4469
vn 0.6476 0.5528 -0.5244
vn 0.7187 0.3805 -0.5820
vn 0.7617 0.1981 -0.6168
vn 0.6891 -0.4622 -0.5581
vn 0.1562 0.9796 -0.1265
vn 0.8184 0.3805 -0.4306
vn 0.8674 0.1981 -0.4564
vn 0.7848 -0.4622 -0.4129
vn 0.1779 0.9796 -0.0936
vn 0.2185 -0.9690 -0.1150
vn 0.3433 0.9217 -0.1806
vn 0.4954 0.8286 -0.2606
vn 0.6285 0.7041 -0.3307
vn 0.7375 0.5528 -0.3880
vn 0.5367 0.8286 -0.1590
vn 0.6809 0.7041 -0.2017
vn 0.7990 0.5528 -0.2367
vn 0.8867 0.3805 -0.2626
vn 0.9398 0.1981 -0.2784
vn 0.8502 -0.4622 -0.2519
vn 0.1927 0.9796 -0.0571
vn 0.2367 -0.9690 -0.0701
vn 0.3719 0.9217 -0.1102
vn 0.9761 0.1981 -0.0897
vn 0.8830 -0.4622 -0.0811
vn 0.2001 0.9796 -0.0184
vn 0.2459 -0.9690 -0.0226
vn 0.3863 0.9217 -0.0355
vn 0.5574 0.8286 -0.0512
vn 0.7072 0.7041 -0.0650
vn 0.8298 0.5528 -0.0763
vn 0.9209 0.3805 -0.0846
vn 0.5567 0.8286 0.0585
vn 0.7063 0.7041 0.0742
vn 0.8288 0.5528 0.0871
vn 0.9197 0.3805 0.0967
vn 0.9748 0.1981 0.1025
vn 0.8819 -0.4622 0.0927
vn 0.1999 0.9796 0.0210
vn 0.2456 -0.9690 0.0258
vn 0.3858 0.9217 0.0405
vn 0.9361 0.1981 0.2907
vn 0.8469 -0.4622 0.2630
vn 0.1919 0.9796 0.0596
vn 0.2358 -0.9690 0.0732
vn 0.3704 0.9217 0.1150
vn 0.5346 0.8286 0.1660
vn 0.6782 0.7041 0.2106
vn 0.7959 0.5528 0.2471
vn 0.8832 0.3805 0.2742
vn 0.6241 0.7041 0.3388
vn 0.7324 0.5528 0.3976
vn 0.8127 0.3805 0.4413
vn 0.8614 0.1981 0.4677
vn 0.7793 -0.4622 0.4231
vn 0.1766 0.9796 0.0959
vn 0.2170 -0.9690 0.1178
vn 0.3409 0.9217 0.1851
vn 0.4919 0.8286 0.2671
vn 0.1545 0.9796 0.1285
vn 0.6818 -0.4622 0.5670
vn 0.1898 -0.9690 0.1579
vn 0.2982 0.9217 0.2480
vn 0.4304 0.8286 0.3579
vn 0.5460 0.7041 0.4541
vn 0.6407 0.5528 0.5329
vn 0.7110 0.3805 0.5913
vn 0.7536 0.1981 0.6268
vn 0.4469 0.7041 0.5519
vn 0.5244 0.5528 0.6476
vn 0.5820 0.3805 0.7187
vn 0.6168 0.1981 0.7617
vn 0.5581 -0.4622 0.6891
vn 0.1265 0.9796 0.1562
vn 0.1554 -0.9690 0.1919
vn 0.2441 0.9217 0.3014
vn 0.3523 0.8286 0.4350
vn 0.4129 -0.4622 0.7848
vn 0.1150 -0.9690 0.2185
vn 0.0936 0.9796 0.1779
vn 0.1806 0.9217 0.3433
vn 0.2606 0.8286 0.4954
vn 0.3307 0.7041 0.6285
vn 0.3880 0.5528 0.7375
vn 0.4306 0.3805 0.8184
vn 0.4564 0.1981 0.8674
vn 0.2367 0.5528 0.7990
vn 0.2626 0.3805 0.8867
vn 0.2784 0.1981 0.9398
vn 0.2519 -0.4622 0.8502
vn 0.0571 0.9796 0.1927
vn 0.0701 -0.9690 0.2367
vn 0.1102 0.9217 0.3719
vn 0.1590 0.8286 0.5367
vn 0.2017 0.7041 0.6809
vn 0.0226 -0.9690 0.2459
vn 0.0355 0.9217 0.3863
vn 0.0512 0.8286 0.5574
vn 0.0650 0.7041 0.7072
vn 0.0763 0.5528 0.8298
vn 0.0846 0.3805 0.9209
vn 0.0897 0.1981 0.9761
vn 0.0811 -0.4622 0.8830
vn 0.0184 0.9796 0.2001
vn -0.0967 0.3805 0.9197
vn -0.1025 0.1981 0.9748
vn -0.0927 -0.4622 0.8819
vn -0.0210 0.9796 0.1999
vn -0.0258 -0.9690 0.2456
vn -0.0405 0.9217 0.3858
vn -0.0585 0.8286 0.5567
vn -0.0742 0.7041 0.7063
vn -0.0871 0.5528 0.8288
vn -0.1150 0.9217 0.3704
vn -0.1660 0.8286 0.5346
vn -0.2106 0.7041 0.6782
vn -0.2471 0.5528 0.7959
vn -0.2742 0.3805 0.8832
vn -0.2907 0.1981 0.9361
vn -0.2630 -0.4622 0.8469
vn -0.0596 0.9796 0.1919
vn -0.0732 -0.9690 0.2358
vn -0.4413 0.3805 0.8127
vn -0.4677 0.1981 0.8614
vn -0.4231 -0.4622 0.7793
vn -0.0959 0.9796 0.1766
vn -0.1178 -0.9690 0.2170
vn -0.1851 0.9217 0.3409
vn -0.2671 0.8286 0.4919
vn -0.3388 0.7041 0.6241
vn -0.3976 0.5528 0.7324
vn -0.3579 0.8286 0.4304
vn -0.4541 0.7041 0.5460
vn -0.5329 0.5528 0.6407
vn -0.5913 0.3805 0.7110
vn -0.6268 0.1981 0.7536
vn -0.5670 -0.4622 0.6818
vn -0.1285 0.9796 0.1545
vn -0.1579 -0.9690 0.1898
vn -0.2480 0.9217 0.2982
vn -0.7617 0.1981 0.6168
vn -0.6891 -0.4622 0.5581
vn -0.1562 0.9796 0.1265
vn -0.1919 -0.9690 0.1554
vn -0.3014 0.9217 0.2441
vn -0.4350 0.8286 0.3523
vn -0.5519 0.7041 0.4469
vn -0.6476 0.5528 0.5244
vn -0.7187 0.3805 0.5820
vn -0.4954 0.8286 0.2606
vn -0.6285 0.7041 0.3307
vn -0.7375 0.5528 0.3880
vn -0.8184 0.3805 0.4306
vn -0.8674 0.1981 0.4564
vn -0.7848 -0.4622 0.4129
vn -0.1779 0.9796 0.0936
vn -0.2185 -0.9690 0.1150
vn -0.3433 0.9217 0.1806
vn -0.9398 0.1981 0.2784
vn -0.8502 -0.4622 0.2519
vn -0.1927 0.9796 0.0571
vn -0.2367 -0.9690 0.0701
vn -0.3719 0.9217 0.1102
vn -0.5367 0.8286 0.1590
vn -0.6809 0.7041 0.2017
vn -0.7990 0.5528 0.2367
vn -0.8867 0.3805 0.2626
vn -0.7072 0.7041 0.0650
vn -0.8298 0.5528 0.0763
vn -0.9209 0.3805 0.0846
vn -0.9761 0.1981 0.0897
vn -0.8830 -0.4622 0.0811
vn -0.2001 0.9796 0.0184
vn -0.2459 -0.9690 0.0226
vn -0.3863 0.9217 0.0355
vn -0.5574 0.8286 0.0512
vt 0.750000 0.937500
vt 0.734375 1.000000
vt 0.718750 0.937500
vt 0.734375 0.000000
vt 0.750000 0.109779
vt 0.718750 0.109779
vt 0.750000 0.490498
vt 0.750000 0.500000
vt 0.718750 0.500000
vt 0.718750 0.490498
vt 0.750000 0.875000
vt 0.718750 0.875000
vt 0.750000 0.487846
vt 0.718750 0.487846
vt 0.750000 0.812500
vt 0.718750 0.812500
vt 0.750000 0.476496
vt 0.718750 0.476496
vt 0.750000 0.750000
vt 0.718750 0.750000
vt 0.750000 0.464855
vt 0.718750 0.464855
vt 0.750000 0.687500
vt 0.718750 0.687500
vt 0.750000 0.443821
vt 0.718750 0.443821
vt 0.750000 0.625000
vt 0.718750 0.625000
vt 0.750000 0.402399
vt 0.718750 0.402399
vt 0.750000 0.562500
vt 0.718750 0.562500
vt 0.750000 0.296375
vt 0.718750 0.296375
vt 0.687500 0.625000
vt 0.687500 0.562500
vt 0.687500 0.402399
vt 0.687500 0.296375
vt 0.687500 0.500000
vt 0.703125 1.000000
vt 0.687500 0.937500
vt 0.703125 0.000000
vt 0.687500 0.109779
vt 0.687500 0.490498
vt 0.687500 0.875000
vt 0.687500 0.487846
vt 0.687500 0.812500
vt 0.687500 0.476496
vt 0.687500 0.750000
vt 0.687500 0.464855
vt 0.687500 0.687500
vt 0.687500 0.443821
vt 0.656250 0.487846
vt 0.656250 0.476496
vt 0.656250 0.812500
vt 0.656250 0.750000
vt 0.656250 0.464855
vt 0.656250 0.687500
vt 0.656250 0.443821
vt 0.656250 0.625000
vt 0.656250 0.402399
vt 0.656250 0.562500
vt 0.656250 0.296375
vt 0.656250 0.500000
vt 0.671875 1.000000
vt 0.656250 0.937500
vt 0.671875 0.000000
vt 0.656250 0.109779
vt 0.656250 0.490498
vt 0.656250 0.875000
vt 0.625000 0.402399
vt 0.625000 0.296375
vt 0.625000 0.562500
vt 0.625000 0.500000
vt 0.640625 1.000000
vt 0.625000 0.937500
vt 0.640625 0.000000
vt 0.625000 0.109779
vt 0.625000 0.490498
vt 0.625000 0.875000
vt 0.625000 0.487846
vt 0.625000 0.812500
vt 0.625000 0.476496
vt 0.625000 0.750000
vt 0.625000 0.464855
vt 0.625000 0.687500
vt 0.625000 0.443821
vt 0.625000 0.625000
vt 0.593750 0.476496
vt 0.593750 0.464855
vt 0.593750 0.750000
vt 0.593750 0.687500
vt 0.593750 0.443821
vt 0.593750 0.625000
vt 0.593750 0.402399
vt 0.593750 0.562500
vt 0.593750 0.296375
vt 0.593750 0.500000
vt 0.609375 1.000000
vt 0.593750 0.937500
vt 0.609375 0.000000
vt 0.593750 0.109779
vt 0.593750 0.490498
vt 0.593750 0.875000
vt 0.593750 0.487846
vt 0.593750 0.812500
vt 0.578125 1.000000
vt 0.562500 0.937500
vt 0.578125 0.000000
vt 0.562500 0.109779
vt 0.562500 0.500000
vt 0.562500 0.490498
vt 0.562500 0.875000
vt 0.562500 0.487846
vt 0.562500 0.812500
vt 0.562500 0.476496
vt 0.562500 0.750000
vt 0.562500 0.464855
vt 0.562500 0.687500
vt 0.562500 0.443821
vt 0.562500 0.625000
vt 0.562500 0.402399
vt 0.562500 0.562500
vt 0.562500 0.296375
vt 0.531250 0.750000
vt 0.531250 0.687500
vt 0.531250 0.464855
vt 0.531250 0.443821
vt 0.531250 0.625000
vt 0.531250 0.402399
vt 0.531250 0.562500
vt 0.531250 0.296375
vt 0.531250 0.500000
vt 0.546875 1.000000
vt 0.531250 0.937500
vt 0.546875 0.000000
vt 0.531250 0.109779
vt 0.531250 0.490498
vt 0.531250 0.875000
vt 0.531250 0.487846
vt 0.531250 0.812500
vt 0.531250 0.476496
vt 0.500000 0.500000
vt 0.500000 0.490498
vt 0.500000 0.937500
vt 0.500000 0.875000
vt 0.500000 0.487846
vt 0.500000 0.812500
vt 0.500000 0.476496
vt 0.500000 0.750000
vt 0.500000 0.464855
vt 0.500000 0.687500
vt 0.500000 0.443821
vt 0.500000 0.625000
vt 0.500000 0.402399
vt 0.500000 0.562500
vt 0.500000 0.296375
vt 0.515625 1.000000
vt 0.515625 0.000000
vt 0.500000 0.109779
vt 0.468750 0.464855
vt 0.468750 0.443821
vt 0.468750 0.687500
vt 0.468750 0.625000
vt 0.468750 0.402399
vt 0.468750 0.562500
vt 0.468750 0.296375
vt 0.468750 0.500000
vt 0.484375 1.000000
vt 0.468750 0.937500
vt 0.484375 0.000000
vt 0.468750 0.109779
vt 0.468750 0.490498
vt 0.468750 0.875000
vt 0.468750 0.487846
vt 0.468750 0.812500
vt 0.468750 0.476496
vt 0.468750 0.750000
vt 0.437500 0.937500
vt 0.437500 0.875000
vt 0.437500 0.490498
vt 0.437500 0.487846
vt 0.437500 0.812500
vt 0.437500 0.476496
vt 0.437500 0.750000
vt 0.437500 0.464855
vt 0.437500 0.687500
vt 0.437500 0.443821
vt 0.437500 0.625000
vt 0.437500 0.402399
vt 0.437500 0.562500
vt 0.437500 0.296375
vt 0.437500 0.500000
vt 0.453125 1.000000
vt 0.453125 0.000000
vt 0.437500 0.109779
vt 0.406250 0.687500
vt 0.406250 0.625000
vt 0.406250 0.443821
vt 0.406250 0.402399
vt 0.406250 0.562500
vt 0.406250 0.296375
vt 0.406250 0.500000
vt 0.421875 1.000000
vt 0.406250 0.937500
vt 0.421875 0.000000
vt 0.406250 0.109779
vt 0.406250 0.490498
vt 0.406250 0.875000
vt 0.406250 0.487846
vt 0.406250 0.812500
vt 0.406250 0.476496
vt 0.406250 0.750000
vt 0.406250 0.464855
vt 0.375000 0.490498
vt 0.375000 0.487846
vt 0.375000 0.875000
vt 0.375000 0.812500
vt 0.375000 0.476496
vt 0.375000 0.750000
vt 0.375000 0.464855
vt 0.375000 0.687500
vt 0.375000 0.443821
vt 0.375000 0.625000
vt 0.375000 0.402399
vt 0.375000 0.562500
vt 0.375000 0.296375
vt 0.375000 0.500000
vt 0.390625 1.000000
vt 0.375000 0.937500
vt 0.390625 0.000000
vt 0.375000 0.109779
vt 0.343750 0.443821
vt 0.343750 0.402399
vt 0.343750 0.625000
vt 0.343750 0.562500
vt 0.343750 0.296375
vt 0.343750 0.500000
vt 0.359375 1.000000
vt 0.343750 0.937500
vt 0.359375 0.000000
vt 0.343750 0.109779
vt 0.343750 0.490498
vt 0.343750 0.875000
vt 0.343750 0.487846
vt 0.343750 0.812500
vt 0.343750 0.476496
vt 0.343750 0.750000
vt 0.343750 0.464855
vt 0.343750 0.687500
vt 0.312500 0.487846
vt 0.312500 0.476496
vt 0.312500 0.812500
vt 0.312500 0.750000
vt 0.312500 0.464855
vt 0.312500 0.687500
vt 0.312500 0.443821
vt 0.312500 0.625000
vt 0.312500 0.402399
vt 0.312500 0.562500
vt 0.312500 0.296375
vt 0.312500 0.500000
vt 0.328125 1.000000
vt 0.312500 0.937500
vt 0.328125 0.000000
vt 0.312500 0.109779
vt 0.312500 0.490498
vt 0.312500 0.875000
vt 0.281250 0.402399
vt 0.281250 0.296375
vt 0.281250 0.562500
vt 0.281250 0.500000
vt 0.296875 1.000000
vt 0.281250 0.937500
vt 0.296875 0.000000
vt 0.281250 0.109779
vt 0.281250 0.490498
vt 0.281250 0.875000
vt 0.281250 0.487846
vt 0.281250 0.812500
vt 0.281250 0.476496
vt 0.281250 0.750000
vt 0.281250 0.464855
vt 0.281250 0.687500
vt 0.281250 0.443821
vt 0.281250 0.625000
vt 0.250000 0.812500
vt 0.250000 0.750000
vt 0.250000 0.476496
vt 0.250000 0.464855
vt 0.250000 0.687500
vt 0.250000 0.443821
vt 0.250000 0.625000
vt 0.250000 0.402399
vt 0.250000 0.562500
vt 0.250000 0.296375
vt 0.250000 0.500000
vt 0.265625 1.000000
vt 0.250000 0.937500
vt 0.265625 0.000000
vt 0.250000 0.109779
vt 0.250000 0.490498
vt 0.250000 0.875000
vt 0.250000 0.487846
vt 0.218750 0.562500
vt 0.218750 0.500000
vt 0.234375 1.000000
vt 0.218750 0.937500
vt 0.234375 0.000000
vt 0.218750 0.109779
vt 0.218750 0.490498
vt 0.218750 0.875000
vt 0.218750 0.487846
vt 0.218750 0.812500
vt 0.218750 0.476496
vt 0.218750 0.750000
vt 0.218750 0.464855
vt 0.218750 0.687500
vt 0.218750 0.443821
vt 0.218750 0.625000
vt 0.218750 0.402399
vt 0.218750 0.296375
vt 0.187500 0.476496
vt 0.187500 0.464855
vt 0.187500 0.750000
vt 0.187500 0.687500
vt 0.187500 0.443821
vt 0.187500 0.625000
vt 0.187500 0.402399
vt 0.187500 0.562500
vt 0.187500 0.296375
vt 0.187500 0.500000
vt 0.203125 1.000000
vt 0.187500 0.937500
vt 0.203125 0.000000
vt 0.187500 0.109779
vt 0.187500 0.490498
vt 0.187500 0.875000
vt 0.187500 0.487846
vt 0.187500 0.812500
vt 0.171875 1.000000
vt 0.156250 0.937500
vt 0.171875 0.000000
vt 0.156250 0.109779
vt 0.156250 0.500000
vt 0.156250 0.490498
vt 0.156250 0.875000
vt 0.156250 0.487846
vt 0.156250 0.812500
vt 0.156250 0.476496
vt 0.156250 0.750000
vt 0.156250 0.464855
vt 0.156250 0.687500
vt 0.156250 0.443821
vt 0.156250 0.625000
vt 0.156250 0.402399
vt 0.156250 0.562500
vt 0.156250 0.296375
vt 0.125000 0.750000
vt 0.125000 0.687500
vt 0.125000 0.464855
vt 0.125000 0.443821
vt 0.125000 0.625000
vt 0.125000 0.402399
vt 0.125000 0.562500
vt 0.125000 0.296375
vt 0.125000 0.500000
vt 0.140625 1.000000
vt 0.125000 0.937500
vt 0.140625 0.000000
vt 0.125000 0.109779
vt 0.125000 0.490498
vt 0.125000 0.875000
vt 0.125000 0.487846
vt 0.125000 0.812500
vt 0.125000 0.476496
vt 0.093750 0.500000
vt 0.093750 0.490498
vt 0.093750 0.937500
vt 0.093750 0.875000
vt 0.093750 0.487846
vt 0.093750 0.812500
vt 0.093750 0.476496
vt 0.093750 0.750000
vt 0.093750 0.464855
vt 0.093750 0.687500
vt 0.093750 0.443821
vt 0.093750 0.625000
vt 0.093750 0.402399
vt 0.093750 0.562500
vt 0.093750 0.296375
vt 0.109375 1.000000
vt 0.109375 0.000000
vt 0.093750 0.109779
vt 0.062500 0.464855
vt 0.062500 0.443821
vt 0.062500 0.687500
vt 0.062500 0.625000
vt 0.062500 0.402399
vt 0.062500 0.562500
vt 0.062500 0.296375
vt 0.062500 0.500000
vt 0.078125 1.000000
vt 0.062500 0.937500
vt 0.078125 0.000000
vt 0.062500 0.109779
vt 0.062500 0.490498
vt 0.062500 0.875000
vt 0.062500 0.487846
vt 0.062500 0.812500
vt 0.062500 0.476496
vt 0.062500 0.750000
vt 0.031250 0.490498
vt 0.031250 0.487846
vt 0.031250 0.875000
vt 0.031250 0.812500
vt 0.031250 0.476496
vt 0.031250 0.750000
vt 0.031250 0.464855
vt 0.031250 0.687500
vt 0.031250 0.443821
vt 0.031250 0.625000
vt 0.031250 0.402399
vt 0.031250 0.562500
vt 0.031250 0.296375
vt 0.031250 0.500000
vt 0.046875 1.000000
vt 0.031250 0.937500
vt 0.046875 0.000000
vt 0.031250 0.109779
vt 0.000000 0.443821
vt 0.000000 0.402399
vt 0.000000 0.625000
vt 0.000000 0.562500
vt 0.000000 0.296375
vt 0.000000 0.500000
vt 0.015625 1.000000
vt 0.000000 0.937500
vt 0.015625 0.000000
vt 0.000000 0.109779
vt 0.000000 0.490498
vt 0.000000 0.875000
vt 0.000000 0.487846
vt 0.000000 0.812500
vt 0.000000 0.476496
vt 0.000000 0.750000
vt 0.000000 0.464855
vt 0.000000 0.687500
vt 1.000000 0.812500
vt 1.000000 0.875000
vt 0.968750 0.875000
vt 0.968750 0.812500
vt 1.000000 0.476496
vt 1.000000 0.487846
vt 0.968750 0.487846
vt 0.968750 0.476496
vt 1.000000 0.750000
vt 0.968750 0.750000
vt 1.000000 0.464855
vt 0.968750 0.464855
vt 1.000000 0.687500
vt 0.968750 0.687500
vt 1.000000 0.443821
vt 0.968750 0.443821
vt 1.000000 0.625000
vt 0.968750 0.625000
vt 1.000000 0.402399
vt 0.968750 0.402399
vt 1.000000 0.562500
vt 0.968750 0.562500
vt 1.000000 0.296375
vt 0.968750 0.296375
vt 1.000000 0.500000
vt 0.968750 0.500000
vt 1.000000 0.937500
vt 0.984375 1.000000
vt 0.968750 0.937500
vt 0.984375 0.000000
vt 1.000000 0.109779
vt 0.968750 0.109779
vt 1.000000 0.490498
vt 0.968750 0.490498
vt 0.937500 0.625000
vt 0.937500 0.562500
vt 0.937500 0.402399
vt 0.937500 0.296375
vt 0.937500 0.500000
vt 0.953125 1.000000
vt 0.937500 0.937500
vt 0.953125 0.000000
vt 0.937500 0.109779
vt 0.937500 0.490498
vt 0.937500 0.875000
vt 0.937500 0.487846
vt 0.937500 0.812500
vt 0.937500 0.476496
vt 0.937500 0.750000
vt 0.937500 0.464855
vt 0.937500 0.687500
vt 0.937500 0.443821
vt 0.906250 0.487846
vt 0.906250 0.476496
vt 0.906250 0.812500
vt 0.906250 0.750000
vt 0.906250 0.464855
vt 0.906250 0.687500
vt 0.906250 0.443821
vt 0.906250 0.625000
vt 0.906250 0.402399
vt 0.906250 0.562500
vt 0.906250 0.296375
vt 0.906250 0.500000
vt 0.921875 1.000000
vt 0.906250 0.937500
vt 0.921875 0.000000
vt 0.906250 0.109779
vt 0.906250 0.490498
vt 0.906250 0.875000
vt 0.875000 0.402399
vt 0.875000 0.296375
vt 0.875000 0.562500
vt 0.875000 0.500000
vt 0.890625 1.000000
vt 0.875000 0.937500
vt 0.890625 0.000000
vt 0.875000 0.109779
vt 0.875000 0.490498
vt 0.875000 0.875000
vt 0.875000 0.487846
vt 0.875000 0.812500
vt 0.875000 0.476496
vt 0.875000 0.750000
vt 0.875000 0.464855
vt 0.875000 0.687500
vt 0.875000 0.443821
vt 0.875000 0.625000
vt 0.843750 0.812500
vt 0.843750 0.750000
vt 0.843750 0.476496
vt 0.843750 0.464855
vt 0.843750 0.687500
vt 0.843750 0.443821
vt 0.843750 0.625000
vt 0.843750 0.402399
vt 0.843750 0.562500
vt 0.843750 0.296375
vt 0.843750 0.500000
vt 0.859375 1.000000
vt 0.843750 0.937500
vt 0.859375 0.000000
vt 0.843750 0.109779
vt 0.843750 0.490498
vt 0.843750 0.875000
vt 0.843750 0.487846
vt 0.812500 0.562500
vt 0.812500 0.500000
vt 0.828125 1.000000
vt 0.812500 0.937500
vt 0.828125 0.000000
vt 0.812500 0.109779
vt 0.812500 0.490498
vt 0.812500 0.875000
vt 0.812500 0.487846
vt 0.812500 0.812500
vt 0.812500 0.476496
vt 0.812500 0.750000
vt 0.812500 0.464855
vt 0.812500 0.687500
vt 0.812500 0.443821
vt 0.812500 0.625000
vt 0.812500 0.402399
vt 0.812500 0.296375
vt 0.781250 0.476496
vt 0.781250 0.464855
vt 0.781250 0.750000
vt 0.781250 0.687500
vt 0.781250 0.443821
vt 0.781250 0.625000
vt 0.781250 0.402399
vt 0.781250 0.562500
vt 0.781250 0.296375
vt 0.781250 0.500000
vt 0.796875 1.000000
vt 0.781250 0.937500
vt 0.796875 0.000000
vt 0.781250 0.109779
vt 0.781250 0.490498
vt 0.781250 0.875000
vt 0.781250 0.487846
vt 0.781250 0.812500
vt 0.765625 0.000000
vt 0.765625 1.000000
s 1
usemtl Skybox_Baked.001
f 551/1/1 105/2/2 7/3/3
s 0
f 362/4/4 559/5/4 21/6/4
s 1
f 5/7/5 4/8/6 14/9/7
f 5/7/5 14/9/7 15/10/8
f 552/11/9 551/1/1 7/3/3
f 552/11/9 7/3/3 8/12/10
f 555/13/4 5/7/5 15/10/8
f 555/13/4 15/10/8 16/14/4
f 1/15/11 552/11/9 8/12/10
f 1/15/11 8/12/10 9/16/12
s 0
f 6/17/4 555/13/4 16/14/4
f 6/17/4 16/14/4 17/18/4
s 1
f 553/19/13 1/15/11 9/16/12
f 553/19/13 9/16/12 10/20/14
s 0
f 556/21/4 6/17/4 17/18/4
f 556/21/4 17/18/4 18/22/4
s 1
f 2/23/15 553/19/13 10/20/14
f 2/23/15 10/20/14 11/24/16
s 0
f 557/25/4 556/21/4 18/22/4
f 557/25/4 18/22/4 19/26/4
s 1
f 554/27/17 2/23/15 11/24/16
f 554/27/17 11/24/16 12/28/18
s 0
f 558/29/4 557/25/4 19/26/4
f 558/29/4 19/26/4 20/30/4
s 1
f 3/31/19 554/27/17 12/28/18
f 3/31/19 12/28/18 13/32/20
s 0
f 592/33/4 558/29/4 20/30/4
f 592/33/4 20/30/4 560/34/4
s 1
f 4/8/6 3/31/19 13/32/20
f 4/8/6 13/32/20 14/9/7
f 13/32/20 12/28/18 27/35/21
f 13/32/20 27/35/21 28/36/22
s 0
f 560/34/4 20/30/4 35/37/4
f 560/34/4 35/37/4 561/38/4
s 1
f 14/9/7 13/32/20 28/36/22
f 14/9/7 28/36/22 29/39/23
f 7/3/3 104/40/2 22/41/24
s 0
f 361/42/4 21/6/4 36/43/4
s 1
f 15/10/8 14/9/7 29/39/23
f 15/10/8 29/39/23 30/44/25
f 8/12/10 7/3/3 22/41/24
f 8/12/10 22/41/24 23/45/26
f 16/14/4 15/10/8 30/44/25
f 16/14/4 30/44/25 31/46/4
f 9/16/12 8/12/10 23/45/26
f 9/16/12 23/45/26 24/47/27
s 0
f 17/18/4 16/14/4 31/46/4
f 17/18/4 31/46/4 32/48/4
s 1
f 10/20/14 9/16/12 24/47/27
f 10/20/14 24/47/27 25/49/28
s 0
f 18/22/4 17/18/4 32/48/4
f 18/22/4 32/48/4 33/50/4
s 1
f 11/24/16 10/20/14 25/49/28
f 11/24/16 25/49/28 26/51/29
s 0
f 19/26/4 18/22/4 33/50/4
f 19/26/4 33/50/4 34/52/4
s 1
f 12/28/18 11/24/16 26/51/29
f 12/28/18 26/51/29 27/35/21
s 0
f 20/30/4 19/26/4 34/52/4
f 20/30/4 34/52/4 35/37/4
f 32/48/4 31/46/4 46/53/4
f 32/48/4 46/53/4 47/54/4
s 1
f 25/49/28 24/47/27 39/55/30
f 25/49/28 39/55/30 40/56/31
s 0
f 33/50/4 32/48/4 47/54/4
f 33/50/4 47/54/4 48/57/4
s 1
f 26/51/29 25/49/28 40/56/31
f 26/51/29 40/56/31 41/58/32
s 0
f 34/52/4 33/50/4 48/57/4
f 34/52/4 48/57/4 49/59/4
s 1
f 27/35/21 26/51/29 41/58/32
f 27/35/21 41/58/32 42/60/33
s 0
f 35/37/4 34/52/4 49/59/4
f 35/37/4 49/59/4 50/61/4
s 1
f 28/36/22 27/35/21 42/60/33
f 28/36/22 42/60/33 43/62/34
s 0
f 561/38/4 35/37/4 50/61/4
f 561/38/4 50/61/4 562/63/4
s 1
f 29/39/23 28/36/22 43/62/34
f 29/39/23 43/62/34 44/64/35
f 22/41/24 103/65/2 37/66/36
s 0
f 360/67/4 36/43/4 51/68/4
s 1
f 30/44/25 29/39/23 44/64/35
f 30/44/25 44/64/35 45/69/37
f 23/45/26 22/41/24 37/66/36
f 23/45/26 37/66/36 38/70/38
f 31/46/4 30/44/25 45/69/37
f 31/46/4 45/69/37 46/53/4
f 24/47/27 23/45/26 38/70/38
f 24/47/27 38/70/38 39/55/30
s 0
f 562/63/4 50/61/4 65/71/4
f 562/63/4 65/71/4 563/72/4
s 1
f 44/64/35 43/62/34 58/73/39
f 44/64/35 58/73/39 59/74/40
f 37/66/36 102/75/2 52/76/41
s 0
f 359/77/4 51/68/4 66/78/4
s 1
f 45/69/37 44/64/35 59/74/40
f 45/69/37 59/74/40 60/79/42
f 38/70/38 37/66/36 52/76/41
f 38/70/38 52/76/41 53/80/43
f 46/53/4 45/69/37 60/79/42
f 46/53/4 60/79/42 61/81/4
f 39/55/30 38/70/38 53/80/43
f 39/55/30 53/80/43 54/82/44
s 0
f 47/54/4 46/53/4 61/81/4
f 47/54/4 61/81/4 62/83/4
s 1
f 40/56/31 39/55/30 54/82/44
f 40/56/31 54/82/44 55/84/45
s 0
f 48/57/4 47/54/4 62/83/4
f 48/57/4 62/83/4 63/85/4
s 1
f 41/58/32 40/56/31 55/84/45
f 41/58/32 55/84/45 56/86/46
s 0
f 49/59/4 48/57/4 63/85/4
f 49/59/4 63/85/4 64/87/4
s 1
f 42/60/33 41/58/32 56/86/46
f 42/60/33 56/86/46 57/88/47
s 0
f 50/61/4 49/59/4 64/87/4
f 50/61/4 64/87/4 65/71/4
s 1
f 43/62/34 42/60/33 57/88/47
f 43/62/34 57/88/47 58/73/39
s 0
f 63/85/4 62/83/4 77/89/4
f 63/85/4 77/89/4 78/90/4
s 1
f 56/86/46 55/84/45 70/91/48
f 56/86/46 70/91/48 71/92/49
s 0
f 64/87/4 63/85/4 78/90/4
f 64/87/4 78/90/4 79/93/4
s 1
f 57/88/47 56/86/46 71/92/49
f 57/88/47 71/92/49 72/94/50
s 0
f 65/71/4 64/87/4 79/93/4
f 65/71/4 79/93/4 80/95/4
s 1
f 58/73/39 57/88/47 72/94/50
f 58/73/39 72/94/50 73/96/51
s 0
f 563/72/4 65/71/4 80/95/4
f 563/72/4 80/95/4 564/97/4
s 1
f 59/74/40 58/73/39 73/96/51
f 59/74/40 73/96/51 74/98/52
f 52/76/41 101/99/2 67/100/53
s 0
f 358/101/4 66/78/4 81/102/4
s 1
f 60/79/42 59/74/40 74/98/52
f 60/79/42 74/98/52 75/103/54
f 53/80/43 52/76/41 67/100/53
f 53/80/43 67/100/53 68/104/55
f 61/81/4 60/79/42 75/103/54
f 61/81/4 75/103/54 76/105/4
f 54/82/44 53/80/43 68/104/55
f 54/82/44 68/104/55 69/106/56
s 0
f 62/83/4 61/81/4 76/105/4
f 62/83/4 76/105/4 77/89/4
s 1
f 55/84/45 54/82/44 69/106/56
f 55/84/45 69/106/56 70/91/48
f 67/100/53 100/107/2 114/108/57
s 0
f 357/109/4 81/102/4 128/110/4
s 1
f 75/103/54 74/98/52 121/111/58
f 75/103/54 121/111/58 122/112/59
f 68/104/55 67/100/53 114/108/57
f 68/104/55 114/108/57 115/113/60
f 76/105/4 75/103/54 122/112/59
f 76/105/4 122/112/59 123/114/4
f 69/106/56 68/104/55 115/113/60
f 69/106/56 115/113/60 116/115/61
s 0
f 77/89/4 76/105/4 123/114/4
f 77/89/4 123/114/4 124/116/4
s 1
f 70/91/48 69/106/56 116/115/61
f 70/91/48 116/115/61 117/117/62
s 0
f 78/90/4 77/89/4 124/116/4
f 78/90/4 124/116/4 125/118/4
s 1
f 71/92/49 70/91/48 117/117/62
f 71/92/49 117/117/62 118/119/63
s 0
f 79/93/4 78/90/4 125/118/4
f 79/93/4 125/118/4 126/120/4
s 1
f 72/94/50 71/92/49 118/119/63
f 72/94/50 118/119/63 119/121/64
s 0
f 80/95/4 79/93/4 126/120/4
f 80/95/4 126/120/4 127/122/4
s 1
f 73/96/51 72/94/50 119/121/64
f 73/96/51 119/121/64 120/123/65
s 0
f 564/97/4 80/95/4 127/122/4
f 564/97/4 127/122/4 565/124/4
s 1
f 74/98/52 73/96/51 120/123/65
f 74/98/52 120/123/65 121/111/58
f 118/119/63 117/117/62 132/125/66
f 118/119/63 132/125/66 133/126/67
s 0
f 126/120/4 125/118/4 140/127/4
f 126/120/4 140/127/4 141/128/4
s 1
f 119/121/64 118/119/63 133/126/67
f 119/121/64 133/126/67 134/129/68
s 0
f 127/122/4 126/120/4 141/128/4
f 127/122/4 141/128/4 142/130/4
s 1
f 120/123/65 119/121/64 134/129/68
f 120/123/65 134/129/68 135/131/69
s 0
f 565/124/4 127/122/4 142/130/4
f 565/124/4 142/130/4 566/132/4
s 1
f 121/111/58 120/123/65 135/131/69
f 121/111/58 135/131/69 136/133/70
f 114/108/57 99/134/2 129/135/71
s 0
f 356/136/4 128/110/4 143/137/4
s 1
f 122/112/59 121/111/58 136/133/70
f 122/112/59 136/133/70 137/138/72
f 115/113/60 114/108/57 129/135/71
f 115/113/60 129/135/71 130/139/73
f 123/114/4 122/112/59 137/138/72
f 123/114/4 137/138/72 138/140/4
f 116/115/61 115/113/60 130/139/73
f 116/115/61 130/139/73 131/141/74
s 0
f 124/116/4 123/114/4 138/140/4
f 124/116/4 138/140/4 139/142/4
s 1
f 117/117/62 116/115/61 131/141/74
f 117/117/62 131/141/74 132/125/66
s 0
f 125/118/4 124/116/4 139/142/4
f 125/118/4 139/142/4 140/127/4
s 1
f 137/138/72 136/133/70 151/143/75
f 137/138/72 151/143/75 152/144/76
f 130/139/73 129/135/71 144/145/77
f 130/139/73 144/145/77 145/146/78
f 138/140/4 137/138/72 152/144/76
f 138/140/4 152/144/76 153/147/4
f 131/141/74 130/139/73 145/146/78
f 131/141/74 145/146/78 146/148/79
s 0
f 139/142/4 138/140/4 153/147/4
f 139/142/4 153/147/4 154/149/4
s 1
f 132/125/66 131/141/74 146/148/79
f 132/125/66 146/148/79 147/150/80
s 0
f 140/127/4 139/142/4 154/149/4
f 140/127/4 154/149/4 155/151/4
s 1
f 133/126/67 132/125/66 147/150/80
f 133/126/67 147/150/80 148/152/81
s 0
f 141/128/4 140/127/4 155/151/4
f 141/128/4 155/151/4 156/153/4
s 1
f 134/129/68 133/126/67 148/152/81
f 134/129/68 148/152/81 149/154/82
s 0
f 142/130/4 141/128/4 156/153/4
f 142/130/4 156/153/4 157/155/4
s 1
f 135/131/69 134/129/68 149/154/82
f 135/131/69 149/154/82 150/156/83
s 0
f 566/132/4 142/130/4 157/155/4
f 566/132/4 157/155/4 567/157/4
s 1
f 136/133/70 135/131/69 150/156/83
f 136/133/70 150/156/83 151/143/75
f 129/135/71 98/158/2 144/145/77
s 0
f 355/159/4 143/137/4 158/160/4
f 156/153/4 155/151/4 170/161/4
f 156/153/4 170/161/4 171/162/4
s 1
f 149/154/82 148/152/81 163/163/84
f 149/154/82 163/163/84 164/164/85
s 0
f 157/155/4 156/153/4 171/162/4
f 157/155/4 171/162/4 172/165/4
s 1
f 150/156/83 149/154/82 164/164/85
f 150/156/83 164/164/85 165/166/86
s 0
f 567/157/4 157/155/4 172/165/4
f 567/157/4 172/165/4 568/167/4
s 1
f 151/143/75 150/156/83 165/166/86
f 151/143/75 165/166/86 166/168/87
f 144/145/77 97/169/2 159/170/88
s 0
f 354/171/4 158/160/4 173/172/4
s 1
f 152/144/76 151/143/75 166/168/87
f 152/144/76 166/168/87 167/173/89
f 145/146/78 144/145/77 159/170/88
f 145/146/78 159/170/88 160/174/90
f 153/147/4 152/144/76 167/173/89
f 153/147/4 167/173/89 168/175/4
f 146/148/79 145/146/78 160/174/90
f 146/148/79 160/174/90 161/176/91
s 0
f 154/149/4 153/147/4 168/175/4
f 154/149/4 168/175/4 169/177/4
s 1
f 147/150/80 146/148/79 161/176/91
f 147/150/80 161/176/91 162/178/92
s 0
f 155/151/4 154/149/4 169/177/4
f 155/151/4 169/177/4 170/161/4
s 1
f 148/152/81 147/150/80 162/178/92
f 148/152/81 162/178/92 163/163/84
f 160/174/90 159/170/88 174/179/93
f 160/174/90 174/179/93 175/180/94
f 168/175/4 167/173/89 182/181/95
f 168/175/4 182/181/95 183/182/4
f 161/176/91 160/174/90 175/180/94
f 161/176/91 175/180/94 176/183/96
s 0
f 169/177/4 168/175/4 183/182/4
f 169/177/4 183/182/4 184/184/4
s 1
f 162/178/92 161/176/91 176/183/96
f 162/178/92 176/183/96 177/185/97
s 0
f 170/161/4 169/177/4 184/184/4
f 170/161/4 184/184/4 185/186/4
s 1
f 163/163/84 162/178/92 177/185/97
f 163/163/84 177/185/97 178/187/98
s 0
f 171/162/4 170/161/4 185/186/4
f 171/162/4 185/186/4 186/188/4
s 1
f 164/164/85 163/163/84 178/187/98
f 164/164/85 178/187/98 179/189/99
s 0
f 172/165/4 171/162/4 186/188/4
f 172/165/4 186/188/4 187/190/4
s 1
f 165/166/86 164/164/85 179/189/99
f 165/166/86 179/189/99 180/191/100
s 0
f 568/167/4 172/165/4 187/190/4
f 568/167/4 187/190/4 569/192/4
s 1
f 166/168/87 165/166/86 180/191/100
f 166/168/87 180/191/100 181/193/101
f 159/170/88 96/194/2 174/179/93
s 0
f 353/195/4 173/172/4 188/196/4
s 1
f 167/173/89 166/168/87 181/193/101
f 167/173/89 181/193/101 182/181/95
f 179/189/99 178/187/98 193/197/102
f 179/189/99 193/197/102 194/198/103
s 0
f 187/190/4 186/188/4 201/199/4
f 187/190/4 201/199/4 202/200/4
s 1
f 180/191/100 179/189/99 194/198/103
f 180/191/100 194/198/103 195/201/104
s 0
f 569/192/4 187/190/4 202/200/4
f 569/192/4 202/200/4 570/202/4
s 1
f 181/193/101 180/191/100 195/201/104
f 181/193/101 195/201/104 196/203/105
f 174/179/93 95/204/2 189/205/106
s 0
f 352/206/4 188/196/4 203/207/4
s 1
f 182/181/95 181/193/101 196/203/105
f 182/181/95 196/203/105 197/208/107
f 175/180/94 174/179/93 189/205/106
f 175/180/94 189/205/106 190/209/108
f 183/182/4 182/181/95 197/208/107
f 183/182/4 197/208/107 198/210/4
f 176/183/96 175/180/94 190/209/108
f 176/183/96 190/209/108 191/211/109
s 0
f 184/184/4 183/182/4 198/210/4
f 184/184/4 198/210/4 199/212/4
s 1
f 177/185/97 176/183/96 191/211/109
f 177/185/97 191/211/109 192/213/110
s 0
f 185/186/4 184/184/4 199/212/4
f 185/186/4 199/212/4 200/214/4
s 1
f 178/187/98 177/185/97 192/213/110
f 178/187/98 192/213/110 193/197/102
f 186/188/4 185/186/4 200/214/4
s 0
f 186/188/4 200/214/4 201/199/4
s 1
f 198/210/4 197/208/107 212/215/111
f 198/210/4 212/215/111 213/216/4
f 191/211/109 190/209/108 205/217/112
f 191/211/109 205/217/112 206/218/113
s 0
f 199/212/4 198/210/4 213/216/4
f 199/212/4 213/216/4 214/219/4
s 1
f 192/213/110 191/211/109 206/218/113
f 192/213/110 206/218/113 207/220/114
s 0
f 200/214/4 199/212/4 214/219/4
f 200/214/4 214/219/4 215/221/4
s 1
f 193/197/102 192/213/110 207/220/114
f 193/197/102 207/220/114 208/222/115
s 0
f 201/199/4 200/214/4 215/221/4
f 201/199/4 215/221/4 216/223/4
s 1
f 194/198/103 193/197/102 208/222/115
f 194/198/103 208/222/115 209/224/116
s 0
f 202/200/4 201/199/4 216/223/4
f 202/200/4 216/223/4 217/225/4
s 1
f 195/201/104 194/198/103 209/224/116
f 195/201/104 209/224/116 210/226/117
s 0
f 570/202/4 202/200/4 217/225/4
f 570/202/4 217/225/4 571/227/4
s 1
f 196/203/105 195/201/104 210/226/117
f 196/203/105 210/226/117 211/228/118
f 189/205/106 94/229/2 204/230/119
s 0
f 351/231/4 203/207/4 218/232/4
s 1
f 197/208/107 196/203/105 211/228/118
f 197/208/107 211/228/118 212/215/111
f 190/209/108 189/205/106 204/230/119
f 190/209/108 204/230/119 205/217/112
s 0
f 217/225/4 216/223/4 231/233/4
f 217/225/4 231/233/4 232/234/4
s 1
f 210/226/117 209/224/116 224/235/120
f 210/226/117 224/235/120 225/236/121
s 0
f 571/227/4 217/225/4 232/234/4
f 571/227/4 232/234/4 572/237/4
s 1
f 211/228/118 210/226/117 225/236/121
f 211/228/118 225/236/121 226/238/122
f 204/230/119 93/239/2 219/240/123
s 0
f 350/241/4 218/232/4 233/242/4
s 1
f 212/215/111 211/228/118 226/238/122
f 212/215/111 226/238/122 227/243/124
f 205/217/112 204/230/119 219/240/123
f 205/217/112 219/240/123 220/244/125
f 213/216/4 212/215/111 227/243/124
f 213/216/4 227/243/124 228/245/4
f 206/218/113 205/217/112 220/244/125
f 206/218/113 220/244/125 221/246/126
s 0
f 214/219/4 213/216/4 228/245/4
f 214/219/4 228/245/4 229/247/4
s 1
f 207/220/114 206/218/113 221/246/126
f 207/220/114 221/246/126 222/248/127
s 0
f 215/221/4 214/219/4 229/247/4
f 215/221/4 229/247/4 230/249/4
s 1
f 208/222/115 207/220/114 222/248/127
f 208/222/115 222/248/127 223/250/128
s 0
f 216/223/4 215/221/4 230/249/4
f 216/223/4 230/249/4 231/233/4
s 1
f 209/224/116 208/222/115 223/250/128
f 209/224/116 223/250/128 224/235/120
s 0
f 229/247/4 228/245/4 243/251/4
f 229/247/4 243/251/4 244/252/4
s 1
f 222/248/127 221/246/126 236/253/129
f 222/248/127 236/253/129 237/254/130
s 0
f 230/249/4 229/247/4 244/252/4
f 230/249/4 244/252/4 245/255/4
s 1
f 223/250/128 222/248/127 237/254/130
f 223/250/128 237/254/130 238/256/131
s 0
f 231/233/4 230/249/4 245/255/4
f 231/233/4 245/255/4 246/257/4
s 1
f 224/235/120 223/250/128 238/256/131
f 224/235/120 238/256/131 239/258/132
s 0
f 232/234/4 231/233/4 246/257/4
f 232/234/4 246/257/4 247/259/4
s 1
f 225/236/121 224/235/120 239/258/132
f 225/236/121 239/258/132 240/260/133
s 0
f 572/237/4 232/234/4 247/259/4
f 572/237/4 247/259/4 573/261/4
s 1
f 226/238/122 225/236/121 240/260/133
f 226/238/122 240/260/133 241/262/134
f 219/240/123 92/263/2 234/264/135
s 0
f 349/265/4 233/242/4 248/266/4
s 1
f 227/243/124 226/238/122 241/262/134
f 227/243/124 241/262/134 242/267/136
f 220/244/125 219/240/123 234/264/135
f 220/244/125 234/264/135 235/268/137
f 228/245/4 227/243/124 242/267/136
f 228/245/4 242/267/136 243/251/4
f 221/246/126 220/244/125 235/268/137
f 221/246/126 235/268/137 236/253/129
s 0
f 573/261/4 247/259/4 262/269/4
f 573/261/4 262/269/4 574/270/4
s 1
f 241/262/134 240/260/133 255/271/138
f 241/262/134 255/271/138 256/272/139
f 234/264/135 91/273/2 249/274/140
s 0
f 348/275/4 248/266/4 263/276/4
s 1
f 242/267/136 241/262/134 256/272/139
f 242/267/136 256/272/139 257/277/141
f 235/268/137 234/264/135 249/274/140
f 235/268/137 249/274/140 250/278/142
f 243/251/4 242/267/136 257/277/141
f 243/251/4 257/277/141 258/279/4
f 236/253/129 235/268/137 250/278/142
f 236/253/129 250/278/142 251/280/143
s 0
f 244/252/4 243/251/4 258/279/4
f 244/252/4 258/279/4 259/281/4
s 1
f 237/254/130 236/253/129 251/280/143
f 237/254/130 251/280/143 252/282/144
s 0
f 245/255/4 244/252/4 259/281/4
f 245/255/4 259/281/4 260/283/4
s 1
f 238/256/131 237/254/130 252/282/144
f 238/256/131 252/282/144 253/284/145
s 0
f 246/257/4 245/255/4 260/283/4
f 246/257/4 260/283/4 261/285/4
s 1
f 239/258/132 238/256/131 253/284/145
f 239/258/132 253/284/145 254/286/146
s 0
f 247/259/4 246/257/4 261/285/4
f 247/259/4 261/285/4 262/269/4
s 1
f 240/260/133 239/258/132 254/286/146
f 240/260/133 254/286/146 255/271/138
f 252/282/144 251/280/143 266/287/147
f 252/282/144 266/287/147 267/288/148
s 0
f 260/283/4 259/281/4 274/289/4
f 260/283/4 274/289/4 275/290/4
s 1
f 253/284/145 252/282/144 267/288/148
f 253/284/145 267/288/148 268/291/149
s 0
f 261/285/4 260/283/4 275/290/4
f 261/285/4 275/290/4 276/292/4
s 1
f 254/286/146 253/284/145 268/291/149
f 254/286/146 268/291/149 269/293/150
s 0
f 262/269/4 261/285/4 276/292/4
f 262/269/4 276/292/4 277/294/4
s 1
f 255/271/138 254/286/146 269/293/150
f 255/271/138 269/293/150 270/295/151
s 0
f 574/270/4 262/269/4 277/294/4
f 574/270/4 277/294/4 575/296/4
s 1
f 256/272/139 255/271/138 270/295/151
f 256/272/139 270/295/151 271/297/152
f 249/274/140 90/298/2 264/299/153
s 0
f 347/300/4 263/276/4 278/301/4
s 1
f 257/277/141 256/272/139 271/297/152
f 257/277/141 271/297/152 272/302/154
f 250/278/142 249/274/140 264/299/153
f 250/278/142 264/299/153 265/303/155
f 258/279/4 257/277/141 272/302/154
f 258/279/4 272/302/154 273/304/4
f 251/280/143 250/278/142 265/303/155
f 251/280/143 265/303/155 266/287/147
s 0
f 259/281/4 258/279/4 273/304/4
f 259/281/4 273/304/4 274/289/4
s 1
f 271/297/152 270/295/151 285/305/156
f 271/297/152 285/305/156 286/306/157
f 264/299/153 89/307/2 279/308/158
s 0
f 346/309/4 278/301/4 293/310/4
s 1
f 272/302/154 271/297/152 286/306/157
f 272/302/154 286/306/157 287/311/159
f 265/303/155 264/299/153 279/308/158
f 265/303/155 279/308/158 280/312/160
f 273/304/4 272/302/154 287/311/159
f 273/304/4 287/311/159 288/313/4
f 266/287/147 265/303/155 280/312/160
f 266/287/147 280/312/160 281/314/161
s 0
f 274/289/4 273/304/4 288/313/4
f 274/289/4 288/313/4 289/315/4
s 1
f 267/288/148 266/287/147 281/314/161
f 267/288/148 281/314/161 282/316/162
s 0
f 275/290/4 274/289/4 289/315/4
f 275/290/4 289/315/4 290/317/4
s 1
f 268/291/149 267/288/148 282/316/162
f 268/291/149 282/316/162 283/318/163
s 0
f 276/292/4 275/290/4 290/317/4
f 276/292/4 290/317/4 291/319/4
s 1
f 269/293/150 268/291/149 283/318/163
f 269/293/150 283/318/163 284/320/164
s 0
f 277/294/4 276/292/4 291/319/4
f 277/294/4 291/319/4 292/321/4
s 1
f 270/295/151 269/293/150 284/320/164
f 270/295/151 284/320/164 285/305/156
s 0
f 575/296/4 277/294/4 292/321/4
f 575/296/4 292/321/4 576/322/4
f 290/317/4 289/315/4 304/323/4
f 290/317/4 304/323/4 305/324/4
s 1
f 283/318/163 282/316/162 297/325/165
f 283/318/163 297/325/165 298/326/166
s 0
f 291/319/4 290/317/4 305/324/4
f 291/319/4 305/324/4 306/327/4
s 1
f 284/320/164 283/318/163 298/326/166
f 284/320/164 298/326/166 299/328/167
s 0
f 292/321/4 291/319/4 306/327/4
f 292/321/4 306/327/4 307/329/4
s 1
f 285/305/156 284/320/164 299/328/167
f 285/305/156 299/328/167 300/330/168
s 0
f 576/322/4 292/321/4 307/329/4
f 576/322/4 307/329/4 577/331/4
s 1
f 286/306/157 285/305/156 300/330/168
f 286/306/157 300/330/168 301/332/169
f 279/308/158 88/333/2 294/334/170
s 0
f 345/335/4 293/310/4 308/336/4
s 1
f 287/311/159 286/306/157 301/332/169
f 287/311/159 301/332/169 302/337/171
f 280/312/160 279/308/158 294/334/170
f 280/312/160 294/334/170 295/338/172
f 288/313/4 287/311/159 302/337/171
f 288/313/4 302/337/171 303/339/4
f 281/314/161 280/312/160 295/338/172
f 281/314/161 295/338/172 296/340/173
s 0
f 289/315/4 288/313/4 303/339/4
f 289/315/4 303/339/4 304/323/4
s 1
f 282/316/162 281/314/161 296/340/173
f 282/316/162 296/340/173 297/325/165
f 294/334/170 87/341/2 309/342/174
s 0
f 344/343/4 308/336/4 323/344/4
s 1
f 302/337/171 301/332/169 316/345/175
f 302/337/171 316/345/175 317/346/176
f 295/338/172 294/334/170 309/342/174
f 295/338/172 309/342/174 310/347/177
f 303/339/4 302/337/171 317/346/176
f 303/339/4 317/346/176 318/348/4
f 296/340/173 295/338/172 310/347/177
f 296/340/173 310/347/177 311/349/178
s 0
f 304/323/4 303/339/4 318/348/4
f 304/323/4 318/348/4 319/350/4
s 1
f 297/325/165 296/340/173 311/349/178
f 297/325/165 311/349/178 312/351/179
s 0
f 305/324/4 304/323/4 319/350/4
f 305/324/4 319/350/4 320/352/4
s 1
f 298/326/166 297/325/165 312/351/179
f 298/326/166 312/351/179 313/353/180
s 0
f 306/327/4 305/324/4 320/352/4
f 306/327/4 320/352/4 321/354/4
s 1
f 299/328/167 298/326/166 313/353/180
f 299/328/167 313/353/180 314/355/181
s 0
f 307/329/4 306/327/4 321/354/4
f 307/329/4 321/354/4 322/356/4
s 1
f 300/330/168 299/328/167 314/355/181
f 300/330/168 314/355/181 315/357/182
s 0
f 577/331/4 307/329/4 322/356/4
f 577/331/4 322/356/4 578/358/4
s 1
f 301/332/169 300/330/168 315/357/182
f 301/332/169 315/357/182 316/345/175
f 313/353/180 312/351/179 327/359/183
f 313/353/180 327/359/183 328/360/184
s 0
f 321/354/4 320/352/4 335/361/4
f 321/354/4 335/361/4 336/362/4
s 1
f 314/355/181 313/353/180 328/360/184
f 314/355/181 328/360/184 329/363/185
s 0
f 322/356/4 321/354/4 336/362/4
f 322/356/4 336/362/4 337/364/4
s 1
f 315/357/182 314/355/181 329/363/185
f 315/357/182 329/363/185 330/365/186
s 0
f 578/358/4 322/356/4 337/364/4
f 578/358/4 337/364/4 579/366/4
s 1
f 316/345/175 315/357/182 330/365/186
f 316/345/175 330/365/186 331/367/187
f 309/342/174 86/368/2 324/369/188
s 0
f 343/370/4 323/344/4 338/371/4
s 1
f 317/346/176 316/345/175 331/367/187
f 317/346/176 331/367/187 332/372/189
f 310/347/177 309/342/174 324/369/188
f 310/347/177 324/369/188 325/373/190
f 318/348/4 317/346/176 332/372/189
f 318/348/4 332/372/189 333/374/4
f 311/349/178 310/347/177 325/373/190
f 311/349/178 325/373/190 326/375/191
s 0
f 319/350/4 318/348/4 333/374/4
f 319/350/4 333/374/4 334/376/4
s 1
f 312/351/179 311/349/178 326/375/191
f 312/351/179 326/375/191 327/359/183
s 0
f 320/352/4 319/350/4 334/376/4
f 320/352/4 334/376/4 335/361/4
s 1
f 332/372/189 331/367/187 378/377/192
f 332/372/189 378/377/192 379/378/193
f 325/373/190 324/369/188 371/379/194
f 325/373/190 371/379/194 372/380/195
f 333/374/4 332/372/189 379/378/193
f 333/374/4 379/378/193 380/381/4
f 326/375/191 325/373/190 372/380/195
f 326/375/191 372/380/195 373/382/196
s 0
f 334/376/4 333/374/4 380/381/4
f 334/376/4 380/381/4 381/383/4
s 1
f 327/359/183 326/375/191 373/382/196
f 327/359/183 373/382/196 374/384/197
s 0
f 335/361/4 334/376/4 381/383/4
f 335/361/4 381/383/4 382/385/4
s 1
f 328/360/184 327/359/183 374/384/197
f 328/360/184 374/384/197 375/386/198
s 0
f 336/362/4 335/361/4 382/385/4
f 336/362/4 382/385/4 383/387/4
s 1
f 329/363/185 328/360/184 375/386/198
f 329/363/185 375/386/198 376/388/199
s 0
f 337/364/4 336/362/4 383/387/4
f 337/364/4 383/387/4 384/389/4
s 1
f 330/365/186 329/363/185 376/388/199
f 330/365/186 376/388/199 377/390/200
s 0
f 579/366/4 337/364/4 384/389/4
f 579/366/4 384/389/4 580/391/4
s 1
f 331/367/187 330/365/186 377/390/200
f 331/367/187 377/390/200 378/377/192
f 324/369/188 85/392/2 371/379/194
s 0
f 342/393/4 338/371/4 385/394/4
f 383/387/4 382/385/4 397/395/4
f 383/387/4 397/395/4 398/396/4
s 1
f 376/388/199 375/386/198 390/397/201
f 376/388/199 390/397/201 391/398/202
s 0
f 384/389/4 383/387/4 398/396/4
f 384/389/4 398/396/4 399/399/4
s 1
f 377/390/200 376/388/199 391/398/202
f 377/390/200 391/398/202 392/400/203
s 0
f 580/391/4 384/389/4 399/399/4
f 580/391/4 399/399/4 581/401/4
s 1
f 378/377/192 377/390/200 392/400/203
f 378/377/192 392/400/203 393/402/204
f 371/379/194 84/403/2 386/404/205
s 0
f 341/405/4 385/394/4 400/406/4
s 1
f 379/378/193 378/377/192 393/402/204
f 379/378/193 393/402/204 394/407/206
f 372/380/195 371/379/194 386/404/205
f 372/380/195 386/404/205 387/408/207
f 380/381/4 379/378/193 394/407/206
f 380/381/4 394/407/206 395/409/4
f 373/382/196 372/380/195 387/408/207
f 373/382/196 387/408/207 388/410/208
s 0
f 381/383/4 380/381/4 395/409/4
f 381/383/4 395/409/4 396/411/4
s 1
f 374/384/197 373/382/196 388/410/208
f 374/384/197 388/410/208 389/412/209
s 0
f 382/385/4 381/383/4 396/411/4
f 382/385/4 396/411/4 397/395/4
s 1
f 375/386/198 374/384/197 389/412/209
f 375/386/198 389/412/209 390/397/201
f 395/409/4 394/407/206 409/413/210
f 395/409/4 409/413/210 410/414/4
f 388/410/208 387/408/207 402/415/211
f 388/410/208 402/415/211 403/416/212
s 0
f 396/411/4 395/409/4 410/414/4
f 396/411/4 410/414/4 411/417/4
s 1
f 389/412/209 388/410/208 403/416/212
f 389/412/209 403/416/212 404/418/213
s 0
f 397/395/4 396/411/4 411/417/4
f 397/395/4 411/417/4 412/419/4
s 1
f 390/397/201 389/412/209 404/418/213
f 390/397/201 404/418/213 405/420/214
s 0
f 398/396/4 397/395/4 412/419/4
f 398/396/4 412/419/4 413/421/4
s 1
f 391/398/202 390/397/201 405/420/214
f 391/398/202 405/420/214 406/422/215
s 0
f 399/399/4 398/396/4 413/421/4
f 399/399/4 413/421/4 414/423/4
s 1
f 392/400/203 391/398/202 406/422/215
f 392/400/203 406/422/215 407/424/216
s 0
f 581/401/4 399/399/4 414/423/4
f 581/401/4 414/423/4 582/425/4
s 1
f 393/402/204 392/400/203 407/424/216
f 393/402/204 407/424/216 408/426/217
f 386/404/205 83/427/2 401/428/218
s 0
f 340/429/4 400/406/4 415/430/4
s 1
f 394/407/206 393/402/204 408/426/217
f 394/407/206 408/426/217 409/413/210
f 387/408/207 386/404/205 401/428/218
f 387/408/207 401/428/218 402/415/211
s 0
f 414/423/4 413/421/4 440/431/4
f 414/423/4 440/431/4 442/432/4
s 1
f 407/424/216 406/422/215 426/433/219
f 407/424/216 426/433/219 428/434/220
s 0
f 582/425/4 414/423/4 442/432/4
f 582/425/4 442/432/4 583/435/4
s 1
f 408/426/217 407/424/216 428/434/220
f 408/426/217 428/434/220 430/436/221
f 401/428/218 82/437/2 416/438/222
s 0
f 339/439/4 415/430/4 444/440/4
s 1
f 409/413/210 408/426/217 430/436/221
f 409/413/210 430/436/221 432/441/223
f 402/415/211 401/428/218 416/438/222
f 402/415/211 416/438/222 418/442/224
f 410/414/4 409/413/210 432/441/223
f 410/414/4 432/441/223 434/443/4
f 403/416/212 402/415/211 418/442/224
f 403/416/212 418/442/224 420/444/225
s 0
f 411/417/4 410/414/4 434/443/4
f 411/417/4 434/443/4 436/445/4
s 1
f 404/418/213 403/416/212 420/444/225
f 404/418/213 420/444/225 422/446/226
s 0
f 412/419/4 411/417/4 436/445/4
f 412/419/4 436/445/4 438/447/4
s 1
f 405/420/214 404/418/213 422/446/226
f 405/420/214 422/446/226 424/448/227
s 0
f 413/421/4 412/419/4 438/447/4
f 413/421/4 438/447/4 440/431/4
s 1
f 406/422/215 405/420/214 424/448/227
f 406/422/215 424/448/227 426/433/219
f 421/449/225 419/450/224 447/451/228
f 421/449/225 447/451/228 448/452/229
s 0
f 437/453/4 435/454/4 455/455/4
f 437/453/4 455/455/4 456/456/4
s 1
f 423/457/226 421/449/225 448/452/229
f 423/457/226 448/452/229 449/458/230
s 0
f 439/459/4 437/453/4 456/456/4
f 439/459/4 456/456/4 457/460/4
s 1
f 425/461/227 423/457/226 449/458/230
f 425/461/227 449/458/230 450/462/231
s 0
f 441/463/4 439/459/4 457/460/4
f 441/463/4 457/460/4 458/464/4
s 1
f 427/465/219 425/461/227 450/462/231
f 427/465/219 450/462/231 451/466/232
s 0
f 443/467/4 441/463/4 458/464/4
f 443/467/4 458/464/4 459/468/4
s 1
f 429/469/220 427/465/219 451/466/232
f 429/469/220 451/466/232 452/470/233
s 0
f 584/471/4 443/467/4 459/468/4
f 584/471/4 459/468/4 585/472/4
s 1
f 431/473/221 429/469/220 452/470/233
f 431/473/221 452/470/233 453/474/234
f 417/475/222 113/476/2 446/477/235
s 0
f 370/478/4 445/479/4 460/480/4
s 1
f 433/481/223 431/473/221 453/474/234
f 433/481/223 453/474/234 454/482/236
f 419/450/224 417/475/222 446/477/235
f 419/450/224 446/477/235 447/451/228
f 435/454/4 433/481/223 454/482/236
f 435/454/4 454/482/236 455/455/4
f 452/470/233 451/466/232 466/483/237
f 452/470/233 466/483/237 467/484/238
s 0
f 585/472/4 459/468/4 474/485/4
f 585/472/4 474/485/4 586/486/4
s 1
f 453/474/234 452/470/233 467/484/238
f 453/474/234 467/484/238 468/487/239
f 446/477/235 112/488/2 461/489/240
s 0
f 369/490/4 460/480/4 475/491/4
s 1
f 454/482/236 453/474/234 468/487/239
f 454/482/236 468/487/239 469/492/241
f 447/451/228 446/477/235 461/489/240
f 447/451/228 461/489/240 462/493/242
f 455/455/4 454/482/236 469/492/241
f 455/455/4 469/492/241 470/494/4
f 448/452/229 447/451/228 462/493/242
f 448/452/229 462/493/242 463/495/243
s 0
f 456/456/4 455/455/4 470/494/4
f 456/456/4 470/494/4 471/496/4
s 1
f 449/458/230 448/452/229 463/495/243
f 449/458/230 463/495/243 464/497/244
s 0
f 457/460/4 456/456/4 471/496/4
f 457/460/4 471/496/4 472/498/4
s 1
f 450/462/231 449/458/230 464/497/244
f 450/462/231 464/497/244 465/499/245
s 0
f 458/464/4 457/460/4 472/498/4
f 458/464/4 472/498/4 473/500/4
s 1
f 451/466/232 450/462/231 465/499/245
f 451/466/232 465/499/245 466/483/237
s 0
f 459/468/4 458/464/4 473/500/4
f 459/468/4 473/500/4 474/485/4
f 471/496/4 470/494/4 485/501/4
f 471/496/4 485/501/4 486/502/4
s 1
f 464/497/244 463/495/243 478/503/246
f 464/497/244 478/503/246 479/504/247
s 0
f 472/498/4 471/496/4 486/502/4
f 472/498/4 486/502/4 487/505/4
s 1
f 465/499/245 464/497/244 479/504/247
f 465/499/245 479/504/247 480/506/248
s 0
f 473/500/4 472/498/4 487/505/4
f 473/500/4 487/505/4 488/507/4
s 1
f 466/483/237 465/499/245 480/506/248
f 466/483/237 480/506/248 481/508/249
s 0
f 474/485/4 473/500/4 488/507/4
f 474/485/4 488/507/4 489/509/4
s 1
f 467/484/238 466/483/237 481/508/249
f 467/484/238 481/508/249 482/510/250
s 0
f 586/486/4 474/485/4 489/509/4
f 586/486/4 489/509/4 587/511/4
s 1
f 468/487/239 467/484/238 482/510/250
f 468/487/239 482/510/250 483/512/251
f 461/489/240 111/513/2 476/514/252
s 0
f 368/515/4 475/491/4 490/516/4
s 1
f 469/492/241 468/487/239 483/512/251
f 469/492/241 483/512/251 484/517/253
f 462/493/242 461/489/240 476/514/252
f 462/493/242 476/514/252 477/518/254
f 470/494/4 469/492/241 484/517/253
f 470/494/4 484/517/253 485/501/4
f 463/495/243 462/493/242 477/518/254
f 463/495/243 477/518/254 478/503/246
s 0
f 587/511/4 489/509/4 504/519/4
f 587/511/4 504/519/4 588/520/4
s 1
f 483/512/251 482/510/250 497/521/255
f 483/512/251 497/521/255 498/522/256
f 476/514/252 110/523/2 491/524/257
s 0
f 367/525/4 490/516/4 505/526/4
s 1
f 484/517/253 483/512/251 498/522/256
f 484/517/253 498/522/256 499/527/258
f 477/518/254 476/514/252 491/524/257
f 477/518/254 491/524/257 492/528/259
f 485/501/4 484/517/253 499/527/258
f 485/501/4 499/527/258 500/529/4
f 478/503/246 477/518/254 492/528/259
f 478/503/246 492/528/259 493/530/260
s 0
f 486/502/4 485/501/4 500/529/4
f 486/502/4 500/529/4 501/531/4
s 1
f 479/504/247 478/503/246 493/530/260
f 479/504/247 493/530/260 494/532/261
s 0
f 487/505/4 486/502/4 501/531/4
f 487/505/4 501/531/4 502/533/4
s 1
f 480/506/248 479/504/247 494/532/261
f 480/506/248 494/532/261 495/534/262
s 0
f 488/507/4 487/505/4 502/533/4
f 488/507/4 502/533/4 503/535/4
s 1
f 481/508/249 480/506/248 495/534/262
f 481/508/249 495/534/262 496/536/263
s 0
f 489/509/4 488/507/4 503/535/4
f 489/509/4 503/535/4 504/519/4
s 1
f 482/510/250 481/508/249 496/536/263
f 482/510/250 496/536/263 497/521/255
f 494/532/261 493/530/260 508/537/264
f 494/532/261 508/537/264 509/538/265
s 0
f 502/533/4 501/531/4 516/539/4
f 502/533/4 516/539/4 517/540/4
s 1
f 495/534/262 494/532/261 509/538/265
f 495/534/262 509/538/265 510/541/266
s 0
f 503/535/4 502/533/4 517/540/4
f 503/535/4 517/540/4 518/542/4
s 1
f 496/536/263 495/534/262 510/541/266
f 496/536/263 510/541/266 511/543/267
s 0
f 504/519/4 503/535/4 518/542/4
f 504/519/4 518/542/4 519/544/4
s 1
f 497/521/255 496/536/263 511/543/267
f 497/521/255 511/543/267 512/545/268
s 0
f 588/520/4 504/519/4 519/544/4
f 588/520/4 519/544/4 589/546/4
s 1
f 498/522/256 497/521/255 512/545/268
f 498/522/256 512/545/268 513/547/269
f 491/524/257 109/548/2 506/549/270
s 0
f 366/550/4 505/526/4 520/551/4
s 1
f 499/527/258 498/522/256 513/547/269
f 499/527/258 513/547/269 514/552/271
f 492/528/259 491/524/257 506/549/270
f 492/528/259 506/549/270 507/553/272
f 500/529/4 499/527/258 514/552/271
f 500/529/4 514/552/271 515/554/4
f 493/530/260 492/528/259 507/553/272
f 493/530/260 507/553/272 508/537/264
s 0
f 501/531/4 500/529/4 515/554/4
f 501/531/4 515/554/4 516/539/4
s 1
f 513/547/269 512/545/268 527/555/273
f 513/547/269 527/555/273 528/556/274
f 506/549/270 108/557/2 521/558/275
s 0
f 365/559/4 520/551/4 535/560/4
s 1
f 514/552/271 513/547/269 528/556/274
f 514/552/271 528/556/274 529/561/276
f 507/553/272 506/549/270 521/558/275
f 507/553/272 521/558/275 522/562/277
f 515/554/4 514/552/271 529/561/276
f 515/554/4 529/561/276 530/563/4
f 508/537/264 507/553/272 522/562/277
f 508/537/264 522/562/277 523/564/278
s 0
f 516/539/4 515/554/4 530/563/4
f 516/539/4 530/563/4 531/565/4
s 1
f 509/538/265 508/537/264 523/564/278
f 509/538/265 523/564/278 524/566/279
s 0
f 517/540/4 516/539/4 531/565/4
f 517/540/4 531/565/4 532/567/4
s 1
f 510/541/266 509/538/265 524/566/279
f 510/541/266 524/566/279 525/568/280
s 0
f 518/542/4 517/540/4 532/567/4
f 518/542/4 532/567/4 533/569/4
s 1
f 511/543/267 510/541/266 525/568/280
f 511/543/267 525/568/280 526/570/281
s 0
f 519/544/4 518/542/4 533/569/4
f 519/544/4 533/569/4 534/571/4
s 1
f 512/545/268 511/543/267 526/570/281
f 512/545/268 526/570/281 527/555/273
s 0
f 589/546/4 519/544/4 534/571/4
f 589/546/4 534/571/4 590/572/4
f 532/567/4 531/565/4 546/573/4
f 532/567/4 546/573/4 547/574/4
s 1
f 525/568/280 524/566/279 539/575/282
f 525/568/280 539/575/282 540/576/283
s 0
f 533/569/4 532/567/4 547/574/4
f 533/569/4 547/574/4 548/577/4
s 1
f 526/570/281 525/568/280 540/576/283
f 526/570/281 540/576/283 541/578/284
s 0
f 534/571/4 533/569/4 548/577/4
f 534/571/4 548/577/4 549/579/4
s 1
f 527/555/273 526/570/281 541/578/284
f 527/555/273 541/578/284 542/580/285
s 0
f 590/572/4 534/571/4 549/579/4
f 590/572/4 549/579/4 591/581/4
s 1
f 528/556/274 527/555/273 542/580/285
f 528/556/274 542/580/285 543/582/286
f 521/558/275 107/583/2 536/584/287
s 0
f 364/585/4 535/560/4 550/586/4
s 1
f 529/561/276 528/556/274 543/582/286
f 529/561/276 543/582/286 544/587/288
f 522/562/277 521/558/275 536/584/287
f 522/562/277 536/584/287 537/588/289
f 530/563/4 529/561/276 544/587/288
f 530/563/4 544/587/288 545/589/4
f 523/564/278 522/562/277 537/588/289
f 523/564/278 537/588/289 538/590/290
s 0
f 531/565/4 530/563/4 545/589/4
f 531/565/4 545/589/4 546/573/4
s 1
f 524/566/279 523/564/278 538/590/290
f 524/566/279 538/590/290 539/575/282
s 0
f 363/591/4 550/586/4 559/5/4
s 1
f 544/587/288 543/582/286 4/8/6
f 544/587/288 4/8/6 5/7/5
f 537/588/289 536/584/287 551/1/1
f 537/588/289 551/1/1 552/11/9
f 545/589/4 544/587/288 5/7/5
f 545/589/4 5/7/5 555/13/4
f 538/590/290 537/588/289 552/11/9
f 538/590/290 552/11/9 1/15/11
s 0
f 546/573/4 545/589/4 555/13/4
f 546/573/4 555/13/4 6/17/4
s 1
f 539/575/282 538/590/290 1/15/11
f 539/575/282 1/15/11 553/19/13
s 0
f 547/574/4 546/573/4 6/17/4
f 547/574/4 6/17/4 556/21/4
s 1
f 540/576/283 539/575/282 553/19/13
f 540/576/283 553/19/13 2/23/15
s 0
f 548/577/4 547/574/4 556/21/4
f 548/577/4 556/21/4 557/25/4
s 1
f 541/578/284 540/576/283 2/23/15
f 541/578/284 2/23/15 554/27/17
s 0
f 549/579/4 548/577/4 557/25/4
f 549/579/4 557/25/4 558/29/4
s 1
f 542/580/285 541/578/284 554/27/17
f 542/580/285 554/27/17 3/31/19
s 0
f 591/581/4 549/579/4 558/29/4
f 591/581/4 558/29/4 592/33/4
s 1
f 543/582/286 542/580/285 3/31/19
f 543/582/286 3/31/19 4/8/6
f 536/584/287 106/592/2 551/1/1
s 0
f 550/586/4 591/581/4 592/33/4
f 550/586/4 592/33/4 559/5/4
f 535/560/4 590/572/4 591/581/4
f 535/560/4 591/581/4 550/586/4
f 520/551/4 589/546/4 590/572/4
f 520/551/4 590/572/4 535/560/4
f 505/526/4 588/520/4 589/546/4
f 505/526/4 589/546/4 520/551/4
f 490/516/4 587/511/4 588/520/4
f 490/516/4 588/520/4 505/526/4
f 475/491/4 586/486/4 587/511/4
f 475/491/4 587/511/4 490/516/4
f 460/480/4 585/472/4 586/486/4
f 460/480/4 586/486/4 475/491/4
f 445/479/4 584/471/4 585/472/4
f 445/479/4 585/472/4 460/480/4
f 415/430/4 582/425/4 583/435/4
f 415/430/4 583/435/4 444/440/4
f 400/406/4 581/401/4 582/425/4
f 400/406/4 582/425/4 415/430/4
f 385/394/4 580/391/4 581/401/4
f 385/394/4 581/401/4 400/406/4
f 338/371/4 579/366/4 580/391/4
f 338/371/4 580/391/4 385/394/4
f 323/344/4 578/358/4 579/366/4
f 323/344/4 579/366/4 338/371/4
f 308/336/4 577/331/4 578/358/4
f 308/336/4 578/358/4 323/344/4
f 293/310/4 576/322/4 577/331/4
f 293/310/4 577/331/4 308/336/4
f 278/301/4 575/296/4 576/322/4
f 278/301/4 576/322/4 293/310/4
f 263/276/4 574/270/4 575/296/4
f 263/276/4 575/296/4 278/301/4
f 248/266/4 573/261/4 574/270/4
f 248/266/4 574/270/4 263/276/4
f 233/242/4 572/237/4 573/261/4
f 233/242/4 573/261/4 248/266/4
f 218/232/4 571/227/4 572/237/4
f 218/232/4 572/237/4 233/242/4
f 203/207/4 570/202/4 571/227/4
f 203/207/4 571/227/4 218/232/4
f 188/196/4 569/192/4 570/202/4
f 188/196/4 570/202/4 203/207/4
f 173/172/4 568/167/4 569/192/4
f 173/172/4 569/192/4 188/196/4
f 158/160/4 567/157/4 568/167/4
f 158/160/4 568/167/4 173/172/4
f 143/137/4 566/132/4 567/157/4
f 143/137/4 567/157/4 158/160/4
f 128/110/4 565/124/4 566/132/4
f 128/110/4 566/132/4 143/137/4
f 81/102/4 564/97/4 565/124/4
f 81/102/4 565/124/4 128/110/4
f 66/78/4 563/72/4 564/97/4
f 66/78/4 564/97/4 81/102/4
f 51/68/4 562/63/4 563/72/4
f 51/68/4 563/72/4 66/78/4
f 36/43/4 561/38/4 562/63/4
f 36/43/4 562/63/4 51/68/4
f 21/6/4 560/34/4 561/38/4
f 21/6/4 561/38/4 36/43/4
f 559/5/4 592/33/4 560/34/4
f 559/5/4 560/34/4 21/6/4
